<?xml version="1.0" encoding="utf-8"?>
<!-- Generator: Adobe Illustrator 27.5.0, SVG Export Plug-In . SVG Version: 6.00 Build 0)  -->
<svg version="1.1" xmlns="http://www.w3.org/2000/svg" xmlns:xlink="http://www.w3.org/1999/xlink" x="0px" y="0px"
	 viewBox="0 0 675 1200" style="enable-background:new 0 0 675 1200;" xml:space="preserve">
<g id="Background">
	<g>
		<defs>
			<rect id="SVGID_1_" width="675" height="1200"/>
		</defs>
		<clipPath id="SVGID_00000080186978292358122780000006983795270450356666_">
			<use xlink:href="#SVGID_1_"  style="overflow:visible;"/>
		</clipPath>
		
			<radialGradient id="SVGID_00000038414998204613886420000000594269550945786255_" cx="337.0026" cy="599.8677" r="514.1358" gradientTransform="matrix(0.5602 0 0 1.4938 148.7112 -296.0823)" gradientUnits="userSpaceOnUse">
			<stop  offset="0" style="stop-color:#180039"/>
			<stop  offset="1" style="stop-color:#001128"/>
		</radialGradient>
		
			<rect x="-1.406" y="-2.5" style="clip-path:url(#SVGID_00000080186978292358122780000006983795270450356666_);fill:url(#SVGID_00000038414998204613886420000000594269550945786255_);" width="677.813" height="1205"/>
		<g style="clip-path:url(#SVGID_00000080186978292358122780000006983795270450356666_);">
			
				<radialGradient id="SVGID_00000086651205079167898270000012022821626534679985_" cx="154.5014" cy="1977.5328" r="458.486" gradientTransform="matrix(1.6888 0 0 0.4333 75.578 382.723)" gradientUnits="userSpaceOnUse">
				<stop  offset="0.0025" style="stop-color:#A3009E"/>
				<stop  offset="1" style="stop-color:#222221;stop-opacity:0"/>
			</radialGradient>
			
				<ellipse style="fill:url(#SVGID_00000086651205079167898270000012022821626534679985_);" cx="336.5" cy="1239.588" rx="774.266" ry="198.669"/>
			
				<radialGradient id="SVGID_00000143586764506057112650000001520022695634813056_" cx="155.0936" cy="-2931.478" r="331.0099" gradientTransform="matrix(1.6888 0 0 0.3673 75.578 1050.8295)" gradientUnits="userSpaceOnUse">
				<stop  offset="0.0025" style="stop-color:#A3009E"/>
				<stop  offset="1" style="stop-color:#222221;stop-opacity:0"/>
			</radialGradient>
			
				<ellipse style="fill:url(#SVGID_00000143586764506057112650000001520022695634813056_);" cx="337.5" cy="-25.902" rx="559" ry="121.582"/>
			
				<radialGradient id="SVGID_00000123417743200255310750000009452435168524111801_" cx="-60.271" cy="-529.382" r="331.012" gradientTransform="matrix(0 -1.5236 0.3413 0 146.1786 508.1711)" gradientUnits="userSpaceOnUse">
				<stop  offset="0.0025" style="stop-color:#A3009E"/>
				<stop  offset="1" style="stop-color:#222221;stop-opacity:0"/>
			</radialGradient>
			
				<ellipse style="fill:url(#SVGID_00000123417743200255310750000009452435168524111801_);" cx="-34.499" cy="600" rx="112.977" ry="504.32"/>
			
				<radialGradient id="SVGID_00000152981297534761056800000007394962693734474174_" cx="-60.271" cy="1618.142" r="331.012" gradientTransform="matrix(0 -1.5236 0.3413 0 146.1786 508.1711)" gradientUnits="userSpaceOnUse">
				<stop  offset="0.0025" style="stop-color:#A3009E"/>
				<stop  offset="1" style="stop-color:#222221;stop-opacity:0"/>
			</radialGradient>
			
				<ellipse style="fill:url(#SVGID_00000152981297534761056800000007394962693734474174_);" cx="698.45" cy="600" rx="112.977" ry="504.32"/>
		</g>
	</g>
</g>
<g id="Graphic_Elements">
	<g>
		<defs>
			<rect id="SVGID_00000074428146989539621800000004645086296393349564_" width="675" height="1200"/>
		</defs>
		<clipPath id="SVGID_00000170236829474992400570000000141967116202865574_">
			<use xlink:href="#SVGID_00000074428146989539621800000004645086296393349564_"  style="overflow:visible;"/>
		</clipPath>
		<g style="clip-path:url(#SVGID_00000170236829474992400570000000141967116202865574_);">
			<g>
				<g>
					<path style="fill:#08FFD5;" d="M518.745,1260.057c-0.523,0-1.044-0.001-1.57-0.004c-36.414-0.182-78.642-0.958-118.987-7.922
						c-13.53-2.335-29.314-5.535-43.797-11.562c-15.465-6.435-27.185-15.14-35.833-26.611
						c-21.228-28.16-51.383-27.935-78.081-24.002c-17.537,2.584-35.039,6.976-51.965,11.223
						c-18.819,4.722-38.278,9.605-57.904,12.038c-25.272,3.133-51.803,2.488-77.461,1.862c-10.312-0.251-20.975-0.511-31.277-0.511
						H-98.03v-1.617H21.869c10.322,0,20.994,0.26,31.316,0.512c25.599,0.623,52.07,1.267,77.223-1.85
						c19.528-2.421,38.939-7.292,57.71-12.002c16.964-4.257,34.507-8.658,52.124-11.254c27.169-4.001,57.87-4.206,79.608,24.628
						c18.266,24.23,48.578,32.367,78.614,37.552c40.223,6.943,82.372,7.718,118.72,7.899c0.519,0.002,1.043,0.004,1.561,0.004
						c35.873,0,66.697-6.195,99.737-20.021c5.48-2.293,11.016-4.677,16.37-6.982c31.871-13.723,64.826-27.914,101.231-29.273
						l0.06,1.615c-36.103,1.348-67.457,14.849-100.652,29.142c-5.357,2.307-10.896,4.692-16.385,6.989
						C585.861,1253.823,554.84,1260.057,518.745,1260.057z"/>
				</g>
				<g>
					<path style="fill:#13F3D7;" d="M502.504,1234.487c-27.385,0.001-56.198-2.109-87.281-6.367l-2.616-0.358
						c-27.481-3.752-61.683-8.423-85.646-24.815c-4.557-3.117-8.297-7.021-11.915-10.797c-4.847-5.059-9.426-9.838-15.869-13.007
						c-9.985-4.911-21.892-6.707-37.473-5.649c-24.392,1.652-48.481,8.836-71.777,15.785c-10.074,3.005-20.49,6.112-30.739,8.709
						c-29.35,7.435-58.234,8.769-88.815,10.18c-4.119,0.19-8.246,0.38-12.382,0.587l-116.26,5.813l-0.08-1.615l116.26-5.813
						c4.137-0.207,8.266-0.397,12.388-0.587c30.496-1.408,59.301-2.737,88.492-10.133c10.216-2.588,20.616-5.69,30.674-8.69
						c23.381-6.974,47.558-14.184,72.131-15.849c15.878-1.072,28.045,0.771,38.296,5.812c6.699,3.295,11.592,8.401,16.322,13.339
						c3.56,3.716,7.243,7.559,11.66,10.581c23.648,16.175,56.217,20.622,84.952,24.546l2.617,0.358
						c42.893,5.876,81.452,7.652,117.884,5.428c30.598-1.868,58.062-10.555,91.832-29.048c3.677-2.013,7.334-4.045,10.984-6.073
						c31.337-17.41,60.936-33.855,97.102-36.557l0.12,1.612c-35.811,2.676-65.26,19.036-96.438,36.358
						c-3.652,2.029-7.313,4.063-10.992,6.077c-33.992,18.616-61.658,27.361-92.511,29.244
						C523.299,1234.177,513.005,1234.487,502.504,1234.487z"/>
				</g>
				<g>
					<path style="fill:#1EE7D9;" d="M-18.503,1214.565l-0.169-1.607l108.694-11.442c33.048-3.479,65.166-10.818,101.077-23.097
						c4.356-1.489,8.695-3.043,13.29-4.689c24.171-8.656,49.159-17.606,74.089-16.185c14.19,0.809,25.305,7.887,36.053,14.731
						c7.464,4.753,15.181,9.667,23.995,12.602c30.997,10.324,63.977,15.128,97.86,19.527c39.359,5.111,72.348,7.824,105.416,4.453
						c37.565-3.829,67.076-25.783,95.615-47.014c26.857-19.979,54.629-40.639,89.172-46.384l0.265,1.595
						c-34.157,5.682-61.77,26.222-88.472,46.088c-28.715,21.361-58.409,43.451-96.416,47.326
						c-33.226,3.387-66.318,0.668-105.789-4.457c-33.965-4.411-67.029-9.228-98.163-19.596c-9.003-2.998-16.806-7.967-24.352-12.773
						c-11.06-7.044-21.507-13.697-35.276-14.482c-24.592-1.395-49.433,7.492-73.453,16.093c-4.6,1.648-8.945,3.204-13.311,4.697
						c-36.029,12.319-68.259,19.682-101.431,23.174L-18.503,1214.565z"/>
				</g>
				<g>
					<path style="fill:#29DCDB;" d="M21.267,1214.559L21,1212.964c10.728-1.788,21.694-3.473,32.3-5.101
						c22.483-3.454,45.733-7.025,68.234-11.811c26.505-5.638,52.053-16.256,76.758-26.525c6.855-2.849,13.942-5.795,20.926-8.582
						c1.671-0.667,3.374-1.355,5.107-2.056c20.196-8.164,45.33-18.324,67.414-12.752c5.025,1.268,9.409,3.74,13.648,6.13
						c3.22,1.816,6.549,3.692,10.116,5.008c10.66,3.935,22.151,6.309,33.263,8.605c1.459,0.301,2.914,0.602,4.363,0.905
						c34.319,7.18,69.328,13.258,104.053,18.065l5.289,0.737c30.005,4.195,64.014,8.948,94.08,0.931
						c34.013-9.071,58.188-34.231,81.567-58.563c23.092-24.032,46.97-48.882,80.368-58.399l0.444,1.555
						c-32.978,9.396-56.703,34.086-79.646,57.964c-23.533,24.492-47.868,49.817-82.316,59.004
						c-30.384,8.103-64.564,3.325-94.721-0.891l-5.286-0.736c-34.763-4.812-69.808-10.896-104.164-18.084
						c-1.447-0.302-2.901-0.603-4.359-0.904c-11.171-2.308-22.722-4.694-33.496-8.672c-3.687-1.361-7.074-3.271-10.349-5.117
						c-4.147-2.338-8.435-4.755-13.251-5.97c-21.571-5.443-46.433,4.608-66.412,12.682c-1.735,0.702-3.441,1.391-5.113,2.059
						c-6.973,2.782-14.055,5.726-20.905,8.573c-24.774,10.297-50.391,20.945-77.043,26.614c-22.547,4.795-45.819,8.37-68.325,11.827
						C42.945,1211.089,31.984,1212.772,21.267,1214.559z"/>
				</g>
				<g>
					<path style="fill:#34D0DD;" d="M61.04,1214.548l-0.37-1.574c4.238-0.997,8.473-1.978,12.705-2.957
						c28.736-6.654,58.45-13.535,86.358-25.276c14.514-6.106,28.882-13.195,42.776-20.051c14.459-7.134,29.411-14.512,44.565-20.802
						c18.822-7.812,34.006-11.177,55.924-5.261c14.509,3.917,30.04,5.979,45.061,7.973c7.937,1.054,16.145,2.144,24.036,3.49
						c11.602,1.979,23.383,4.095,34.775,6.141c22.168,3.982,45.092,8.099,67.748,11.399l1.918,0.28
						c30.683,4.477,65.46,9.55,94.455-5.601c28.4-14.84,47.283-41.36,65.544-67.005c20.188-28.351,41.061-57.667,74.787-70.939
						l0.592,1.505c-33.279,13.096-54.012,42.214-74.062,70.372c-18.372,25.802-37.37,52.482-66.113,67.501
						c-29.459,15.394-64.511,10.28-95.437,5.767l-1.918-0.279c-22.682-3.303-45.619-7.423-67.801-11.407
						c-11.389-2.046-23.165-4.161-34.76-6.14c-7.862-1.34-16.055-2.428-23.977-3.48c-15.072-2.001-30.657-4.071-45.27-8.015
						c-21.474-5.798-36.384-2.485-54.882,5.193c-15.106,6.269-30.034,13.635-44.47,20.757
						c-13.916,6.867-28.305,13.966-42.865,20.092c-28.035,11.795-57.818,18.691-86.62,25.361
						C69.509,1212.571,65.276,1213.551,61.04,1214.548z"/>
				</g>
				<g>
					<path style="fill:#3FC4DF;" d="M100.817,1214.533l-0.482-1.543c30.509-9.534,60.936-22.971,95.756-42.286
						c7.182-3.984,14.448-8.308,21.475-12.489c15.985-9.512,32.514-19.349,49.859-26.32c12.615-5.072,24.518-4.847,37.118-4.614
						c2.216,0.042,4.463,0.084,6.748,0.098c27.445,0.173,54.436,4.236,84.344,9.127c11.704,1.915,23.579,4.074,35.064,6.161
						c22.784,4.142,46.344,8.425,69.712,11.008c43.787,4.841,64.168-3.208,81.289-16.785c23.602-18.718,39.127-45.598,54.14-71.593
						l2.744-4.745c1.266-2.186,2.531-4.388,3.8-6.598c16.525-28.767,33.611-58.513,65.084-72.284l0.647,1.481
						c-30.983,13.557-47.936,43.068-64.329,71.608c-1.27,2.211-2.536,4.415-3.804,6.602l-2.742,4.743
						c-15.09,26.127-30.692,53.142-54.536,72.051c-24.105,19.115-50.401,20.67-82.472,17.126
						c-23.423-2.589-47.012-6.878-69.823-11.025c-11.478-2.087-23.347-4.244-35.036-6.156c-29.84-4.88-56.765-8.934-84.093-9.106
						c-2.293-0.014-4.547-0.057-6.77-0.098c-12.432-0.234-24.175-0.452-36.484,4.497c-17.229,6.925-33.703,16.729-49.635,26.21
						c-7.037,4.187-14.315,8.518-21.518,12.513C161.956,1191.487,131.433,1204.966,100.817,1214.533z"/>
				</g>
				<g>
					<path style="fill:#49B8E1;" d="M142.481,1211.387l-0.75-1.432c28.8-15.07,59.216-33.21,92.986-55.458
						c3.54-2.333,7.063-4.794,10.792-7.4c12.609-8.81,25.647-17.919,39.8-22.209c43.829-13.288,90.522-5.843,135.678,1.359
						l2.218,0.354c7.671,1.222,15.497,2.582,23.065,3.898c25.19,4.378,51.237,8.904,77.007,9.343
						c28.225,0.503,50.55-9.942,70.271-32.802c17.396-20.166,29.484-45.187,41.173-69.383
						c17.614-36.458,35.827-74.158,72.546-95.759l0.819,1.394c-36.297,21.351-54.401,58.827-71.91,95.068
						c-11.735,24.291-23.87,49.409-41.405,69.736c-20.057,23.251-42.786,33.885-71.521,33.363
						c-25.897-0.441-52.007-4.979-77.257-9.367c-7.562-1.315-15.383-2.674-23.042-3.895l-2.218-0.354
						c-44.974-7.171-91.48-14.585-134.954-1.408c-13.907,4.216-26.837,13.25-39.343,21.987c-3.738,2.612-7.27,5.079-10.829,7.424
						C201.791,1178.125,171.33,1196.293,142.481,1211.387z"/>
				</g>
				<g>
					<path style="fill:#54ADE3;" d="M188.094,1201.202l-0.879-1.358c15.664-10.142,31.177-21.289,46.179-32.067
						c21.531-15.471,43.796-31.468,66.881-44.765c17.821-10.265,38.88-11.416,57.22-11.689c29.652-0.433,59.581,3.587,88.521,7.483
						c2.625,0.354,5.248,0.707,7.87,1.056c3.982,0.531,8.011,1.102,12.075,1.678c26.138,3.705,53.166,7.536,78.547,2.518
						c21.369-4.224,40.788-20.268,59.368-49.049c13.253-20.53,22.589-43.581,31.617-65.872
						c16.056-39.644,32.659-80.637,71.727-106.941l0.903,1.341c-38.658,26.028-54.432,64.974-71.132,106.207
						c-9.057,22.361-18.422,45.484-31.758,66.142c-18.83,29.169-38.591,45.446-60.412,49.759
						c-25.651,5.069-52.816,1.22-79.089-2.505c-4.059-0.575-8.083-1.146-12.061-1.676c-2.623-0.35-5.247-0.703-7.873-1.056
						c-28.882-3.888-58.736-7.909-88.282-7.469c-18.136,0.27-38.951,1.401-56.437,11.473c-23.015,13.257-45.246,29.23-66.745,44.678
						C219.32,1179.88,203.791,1191.038,188.094,1201.202z"/>
				</g>
				<g>
					<path style="fill:#5FA1E5;" d="M233.673,1190.98l-0.932-1.322c20.031-14.133,39.361-29.341,57.264-43.67
						c3.591-2.874,6.95-6.042,10.197-9.106c6.527-6.156,13.274-12.522,22.036-16.547c38.463-17.669,83.889-13.141,127.821-8.763
						c12.628,1.259,24.556,2.448,36.155,3.088l0.429,0.024c25.778,1.423,54.998,3.036,77.02-11.684
						c26.679-17.831,38.283-45.116,46.116-69.455c2.114-6.568,4.193-13.213,6.203-19.64c18.472-59.06,35.919-114.845,91.199-151.473
						l0.894,1.348c-54.802,36.312-72.166,91.829-90.55,150.608c-2.011,6.43-4.09,13.079-6.206,19.654
						c-7.919,24.604-19.667,52.197-46.757,70.303c-22.471,15.021-51.976,13.392-78.008,11.954l-0.428-0.024
						c-11.635-0.642-23.58-1.832-36.226-3.093c-43.717-4.357-88.92-8.863-126.986,8.623c-8.519,3.913-14.873,9.908-21.6,16.254
						c-3.272,3.086-6.654,6.277-10.296,9.192C273.092,1161.595,253.74,1176.822,233.673,1190.98z"/>
				</g>
				<g>
					<path style="fill:#6A95E7;" d="M274.975,1188.175l-0.925-1.326c1.919-1.337,3.898-2.681,5.907-4.044
						c11.206-7.604,22.792-15.467,29.797-26.107c11.073-16.819,23.274-27.009,40.795-34.073
						c33.62-13.552,70.027-12.993,105.235-12.452c20.635,0.316,41.971,0.644,62.411-1.896c30.067-3.738,51.17-15.448,62.725-34.808
						c12.036-20.167,16.343-44.744,20.508-68.513c1.094-6.245,2.226-12.704,3.467-18.834c6.091-30.065,14.087-64.684,31.978-95.067
						c18.383-31.219,45.834-52.085,70.263-68.378l0.897,1.345c-24.276,16.192-51.549,36.916-69.767,67.854
						c-17.763,30.166-25.721,64.631-31.785,94.567c-1.238,6.11-2.317,12.271-3.46,18.793c-4.19,23.912-8.523,48.638-20.713,69.062
						c-11.822,19.809-33.327,31.781-63.914,35.583c-20.552,2.555-41.946,2.224-62.634,1.909
						c-35.046-0.54-71.29-1.095-104.605,12.335c-17.423,7.024-29.026,16.719-40.05,33.462
						c-7.181,10.909-18.903,18.863-30.239,26.556C278.862,1185.501,276.887,1186.841,274.975,1188.175z"/>
				</g>
				<g>
					<path style="fill:#7589E9;" d="M307.69,1200.271l-0.745-1.435c9.062-4.712,13.768-12.81,18.75-21.384
						c2.796-4.81,5.686-9.785,9.456-14.288c13.902-16.607,33.904-29.511,57.842-37.318c24.374-7.948,50.301-10.404,75.375-12.78
						l0.886-0.084c2.878-0.273,5.787-0.531,8.716-0.791c23.803-2.111,48.417-4.294,69.351-15.262
						c25.715-13.472,32.9-36.656,36.833-59.704c2.758-16.167,4.341-32.778,5.873-48.842c1.655-17.365,3.367-35.322,6.569-52.81
						c6.939-37.906,19.378-67.72,38.025-91.146c15.175-19.065,34.797-33.482,53.774-47.424c6.173-4.535,12.555-9.224,18.697-14.008
						l0.993,1.276c-6.159,4.798-12.551,9.494-18.733,14.036c-18.891,13.88-38.426,28.232-53.467,47.128
						c-18.478,23.213-30.809,52.794-37.7,90.43c-3.189,17.42-4.897,35.342-6.549,52.673c-1.534,16.093-3.121,32.735-5.89,48.96
						c-4.003,23.458-11.337,47.067-37.676,60.865c-21.219,11.118-45.997,13.315-69.958,15.44c-2.926,0.26-5.831,0.517-8.705,0.79
						l-0.887,0.084c-24.986,2.367-50.822,4.815-75.026,12.708c-23.649,7.712-43.396,20.443-57.103,36.817
						c-3.68,4.397-6.536,9.311-9.297,14.063C321.989,1187.046,317.169,1195.342,307.69,1200.271z"/>
				</g>
				<g>
					<path style="fill:#807EEB;" d="M329.812,1225.871l-1.179-1.107c7.235-7.704,13.537-16.391,19.631-24.792
						c7.057-9.728,14.354-19.786,23.191-28.474c17.007-16.719,38.267-29.521,63.191-38.052c11.769-4.028,25.467-6.828,39.97-9.792
						c36.05-7.369,76.91-15.722,94.78-46.42c11.889-20.421,11.807-48.158,11.734-72.63c-0.013-4.097-0.024-7.967,0.019-11.758
						l0.067-6.2c0.341-32.442,0.694-65.988,7.869-98.261c7.264-32.676,21.997-60.362,43.789-82.288
						c12.569-12.647,26.981-23.629,40.918-34.25c11.452-8.726,23.294-17.75,34.039-27.643l1.096,1.19
						c-10.802,9.943-22.674,18.99-34.155,27.739c-13.895,10.588-28.261,21.536-40.752,34.103
						c-21.573,21.706-36.161,49.127-43.357,81.499c-7.138,32.108-7.491,65.569-7.831,97.928l-0.067,6.201
						c-0.043,3.778-0.032,7.643-0.019,11.734c0.073,24.677,0.156,52.647-11.953,73.448c-18.234,31.325-59.471,39.754-95.854,47.191
						c-14.451,2.953-28.099,5.744-39.77,9.738c-24.695,8.451-45.75,21.127-62.582,37.674c-8.741,8.594-15.998,18.597-23.016,28.27
						C343.45,1209.363,337.117,1218.092,329.812,1225.871z"/>
				</g>
				<g>
					<path style="fill:#8B72ED;" d="M362.43,1242.984l-1.228-1.05c5.458-6.387,10.817-13.061,15.999-19.515
						c12.044-15.002,24.499-30.515,39.178-43.617c16.739-14.94,37.146-27.207,64.223-38.604c2.468-1.039,4.94-2.07,7.409-3.1
						c45.073-18.807,87.647-36.57,91.737-91.266c1.887-25.23,0.171-51.175-1.487-76.266c-2.821-42.676-5.738-86.803,8.951-128.861
						c15.667-44.859,53.926-74.296,90.926-102.763c11.673-8.982,23.743-18.268,34.665-27.762l1.061,1.221
						c-10.958,9.525-23.048,18.827-34.74,27.823c-36.812,28.323-74.878,57.611-90.385,102.015
						c-14.581,41.747-11.675,85.708-8.864,128.22c1.663,25.148,3.381,51.151,1.486,76.493c-1.87,25.015-12.098,44.731-31.265,60.274
						c-17.068,13.841-39.636,23.257-61.462,32.364c-2.467,1.03-4.937,2.061-7.405,3.099c-26.907,11.326-47.171,23.502-63.772,38.32
						c-14.58,13.013-26.991,28.472-38.994,43.423C373.272,1229.896,367.906,1236.579,362.43,1242.984z"/>
				</g>
				<g>
					<path style="fill:#9666EF;" d="M406.726,1253.099l-1.25-1.025c3.733-4.557,7.485-9.234,11.113-13.758
						c14.592-18.191,29.679-37,47.44-52.875c14.655-13.101,31.266-23.844,47.33-34.233c3.043-1.968,6.09-3.939,9.129-5.927
						c22.547-14.754,38.458-30.423,51.59-50.806c17.301-26.856,14.314-59.352,11.678-88.023c-1.125-12.24-2.653-24.592-4.271-37.67
						c-7.006-56.642-14.251-115.212,11.288-165.616c12.702-25.07,34.196-43.651,54.982-61.62l2.137-1.848
						c10.404-9.002,21.271-17.795,31.782-26.299c13.543-10.957,27.546-22.288,40.685-34.17l1.085,1.199
						c-13.171,11.912-27.192,23.257-40.752,34.228c-10.5,8.495-21.357,17.28-31.741,26.265l-2.137,1.848
						c-20.668,17.866-42.039,36.341-54.598,61.127c-25.315,49.964-18.101,108.286-11.125,164.687
						c1.619,13.091,3.148,25.456,4.277,37.72c2.66,28.931,5.675,61.722-11.929,89.047c-13.262,20.583-29.319,36.399-52.064,51.283
						c-3.042,1.99-6.091,3.962-9.137,5.932c-16.012,10.355-32.57,21.064-47.131,34.08c-17.66,15.786-32.705,34.542-47.255,52.681
						C414.219,1243.854,410.465,1248.536,406.726,1253.099z"/>
				</g>
				<g>
					<path style="fill:#A15AF1;" d="M456.543,1258.014l-1.304-0.955l4.025-5.509c14.983-20.523,30.476-41.745,48.333-60.583
						c5.476-5.778,11.301-11.421,16.934-16.877c10.436-10.108,21.226-20.562,30.195-32.26c20.205-26.354,32.851-49.965,37.587-70.18
						c6.721-28.683,1.558-60.078-3.435-90.438c-0.981-5.961-1.907-11.593-2.745-17.217c-0.534-3.585-1.087-7.219-1.645-10.895
						c-4.555-29.957-9.716-63.911-8.556-96.149c1.333-37.053,10.818-66.274,28.996-89.333
						c20.066-25.456,44.746-46.928,68.612-67.694c18.558-16.146,37.747-32.842,54.61-51.28l1.194,1.091
						c-16.926,18.507-36.151,35.233-54.742,51.409c-23.811,20.717-48.432,42.139-68.404,67.475
						c-17.957,22.78-27.328,51.693-28.65,88.39c-1.155,32.087,3.995,65.962,8.538,95.848c0.56,3.677,1.112,7.313,1.647,10.899
						c0.837,5.612,1.761,11.237,2.741,17.192c5.019,30.518,10.209,62.074,3.414,91.071c-4.789,20.439-17.533,44.257-37.878,70.794
						c-9.041,11.793-19.876,22.288-30.354,32.438c-5.621,5.445-11.433,11.075-16.886,16.828
						c-17.785,18.764-33.248,39.943-48.2,60.425L456.543,1258.014z"/>
				</g>
				<g>
					<path style="fill:#AC4FF3;" d="M505.704,1259.534l-1.418-0.777c9.898-18.07,21.133-35.836,31.998-53.016
						c15.97-25.253,32.484-51.367,45.028-78.891c13.966-30.643,25.48-58.49,24.888-88.987c-0.542-27.917-5.465-56.089-10.228-83.333
						c-1.843-10.547-3.75-21.452-5.367-32.153c-5.19-34.353-9.805-70.822-4.404-105.837c2.721-17.636,9.05-40.263,35.367-74.363
						c14.809-19.189,32.364-36.583,49.339-53.404c22.585-22.379,45.939-45.519,62.937-73.048l1.375,0.849
						c-17.098,27.693-40.521,50.902-63.173,73.347c-16.939,16.784-34.454,34.139-49.197,53.243
						c-26.094,33.81-32.36,56.189-35.05,73.622c-5.366,34.79-0.766,71.12,4.406,105.349c1.614,10.683,3.518,21.579,5.361,32.116
						c4.772,27.305,9.708,55.54,10.252,83.58c0.598,30.837-10.983,58.863-25.033,89.69c-12.59,27.624-29.134,53.785-45.132,79.084
						C526.799,1223.765,515.578,1241.509,505.704,1259.534z"/>
				</g>
				<g>
					<path style="fill:#B643F5;" d="M548.295,1259.19l-1.536-0.505c7.685-23.356,16.879-46.475,25.77-68.834
						c11.593-29.154,23.581-59.302,32.324-90.24c15.15-53.618,14.361-77.754,12.255-97.88c-2.182-20.851-5.736-41.88-9.173-62.217
						c-3.052-18.061-6.208-36.736-8.398-55.242c-3.805-32.169-6.005-66.349,3.567-98.349c7.397-24.726,22.708-47.793,38.152-69.036
						c9.78-13.452,20.458-26.322,30.786-38.768c25.952-31.277,50.465-60.819,63.277-100.145l1.538,0.501
						c-12.908,39.62-37.516,69.278-63.57,100.677c-10.311,12.427-20.974,25.277-30.723,38.687
						c-15.359,21.127-30.582,44.055-37.91,68.549c-9.489,31.719-7.294,65.7-3.51,97.696c2.184,18.466,5.337,37.122,8.386,55.163
						c3.441,20.361,6.999,41.416,9.186,62.318c1.708,16.313,1.307,32.627-1.224,49.875c-2.528,17.222-7.021,34.239-11.083,48.613
						c-8.764,31.019-20.768,61.205-32.377,90.397C565.148,1212.784,555.964,1235.881,548.295,1259.19z"/>
				</g>
				<g>
					<path style="fill:#C137F7;" d="M586.69,1251.575l-1.573-0.377c17.012-70.849,29.607-129.711,39.637-185.242
						c6.875-38.06,8.053-68.14,3.939-100.582c-1.626-12.82-3.588-25.825-5.486-38.403c-3.728-24.7-7.583-50.242-9.075-75.641
						c-2.118-36.033,1.676-64.65,11.942-90.061c8.98-22.232,20.422-44.137,34.007-65.104c5.147-7.944,10.61-15.867,15.894-23.53
						c8.78-12.733,17.858-25.898,25.723-39.511c16.379-28.345,24.186-58.521,32.452-90.469l1.128-4.355l1.565,0.406l-1.127,4.354
						c-8.294,32.057-16.128,62.338-32.617,90.873c-7.898,13.668-16.995,26.861-25.793,39.619
						c-5.277,7.653-10.734,15.566-15.868,23.491c-13.529,20.882-24.923,42.693-33.865,64.831
						c-10.172,25.181-13.93,53.576-11.826,89.361c1.488,25.325,5.338,50.831,9.06,75.495c1.9,12.586,3.864,25.602,5.492,38.44
						c4.135,32.615,2.953,62.842-3.952,101.073C616.31,1121.805,603.708,1180.695,586.69,1251.575z"/>
				</g>
				<g>
					<path style="fill:#CC2BF9;" d="M623.904,1237.463l-1.599-0.241c5.973-39.477,9.165-79.838,12.253-118.87
						c2.198-27.792,4.471-56.53,7.73-84.742c4.251-36.79,4.487-68.199,0.766-101.841c-0.759-6.871-1.584-13.863-2.382-20.625
						c-3.363-28.508-6.841-57.987-6.501-87.189c0.669-57.332,24.731-109.081,45.619-147.759l1.43-2.646
						c12.468-23.071,25.361-46.927,33.143-72.508c7.993-26.266,12.773-54.511,17.396-81.826c1.146-6.774,2.332-13.778,3.538-20.574
						l1.592,0.283c-1.206,6.79-2.391,13.791-3.536,20.562c-4.632,27.365-9.421,55.661-17.443,82.027
						c-7.831,25.736-20.762,49.665-33.268,72.806l-1.43,2.646c-39.597,73.321-45.076,117.079-45.424,147.01
						c-0.339,29.098,3.133,58.524,6.489,86.981c0.798,6.765,1.624,13.76,2.384,20.636c3.734,33.768,3.497,65.289-0.767,102.205
						c-3.256,28.183-5.527,56.906-7.724,84.684C633.08,1157.539,629.886,1197.93,623.904,1237.463z"/>
				</g>
				<g>
					<path style="fill:#D720FB;" d="M660.78,1221.533l-1.612-0.114c2.505-35.375,1.393-71.428,0.317-106.294
						c-1.158-37.539-2.356-76.357,0.957-114.436c2.881-33.123,3.043-65.137,0.508-100.748l-0.407-5.674
						c-2.181-30.381-4.434-61.795-2.231-92.681c3.647-51.137,21.437-95.751,40.272-142.984l2.648-6.645
						c20.453-51.394,25.95-108.754,31.266-164.225c0.907-9.463,1.844-19.249,2.837-28.754l1.607,0.168
						c-0.992,9.498-1.929,19.28-2.836,28.741c-5.326,55.584-10.835,113.06-31.373,164.668l-2.648,6.646
						c-18.787,47.114-36.532,91.614-40.162,142.501c-2.195,30.77,0.055,62.126,2.232,92.45l0.406,5.675
						c2.542,35.699,2.38,67.794-0.51,101.004c-3.305,37.984-2.108,76.753-0.951,114.245
						C662.177,1149.982,663.291,1186.076,660.78,1221.533z"/>
				</g>
				<g>
					<path style="fill:#E214FD;" d="M698.169,1208.469l-1.617-0.016c0.324-34.059-4.031-68.835-8.243-102.467
						c-5.424-43.317-11.034-88.107-6.736-131.952c3.259-33.248,2.373-67.204,1.517-100.044c-0.782-30.007-1.592-61.036,0.754-91.507
						c2.364-30.697,6.454-55.483,12.874-78.005c2.921-10.246,6.312-20.527,9.591-30.468c4.846-14.692,9.856-29.883,13.428-45.212
						c5.508-23.636,6.684-48.141,7.82-71.838c0.337-7.028,0.686-14.295,1.142-21.445c2.752-43.125,4.936-79.392,6.653-116.211
						l1.615,0.075c-1.716,36.831-3.902,73.105-6.654,116.239c-0.455,7.137-0.804,14.398-1.141,21.419
						c-1.141,23.77-2.32,48.349-7.862,72.128c-3.588,15.399-8.61,30.625-13.467,45.351c-3.274,9.926-6.659,20.191-9.571,30.405
						c-6.389,22.415-10.462,47.1-12.817,77.686c-2.339,30.388-1.531,61.375-0.75,91.342c0.858,32.888,1.745,66.896-1.524,100.244
						c-4.28,43.665,1.318,88.364,6.732,131.593C694.132,1139.471,698.494,1174.302,698.169,1208.469z"/>
				</g>
				<g>
					<path style="fill:#ED08FF;" d="M735.303,1202.988c-0.794-40.023-7.595-80.018-14.172-118.697
						c-7.057-41.502-14.354-84.416-14.281-127.563c0.04-23.794-0.09-47.997-0.217-71.404c-0.215-39.841-0.437-81.038,0.176-121.536
						c0.444-29.231,7.441-57.572,14.209-84.979c6.043-24.474,12.291-49.78,13.823-75.576c1.427-24.028,1.079-48.696,0.742-72.551
						c-0.153-10.87-0.312-22.11-0.299-33.112l0.01-8.114c0.043-35.999,0.087-73.224,0.009-109.836l1.617-0.003
						c0.077,36.614,0.033,73.841-0.009,109.841l-0.01,8.114c-0.013,10.989,0.145,22.224,0.299,33.087
						c0.336,23.885,0.685,48.582-0.745,72.669c-1.54,25.944-7.807,51.324-13.868,75.868c-6.746,27.32-13.721,55.57-14.161,84.616
						c-0.613,40.48-0.391,81.669-0.176,121.502c0.127,23.409,0.257,47.616,0.217,71.416c-0.073,43.009,7.212,85.854,14.258,127.289
						c6.587,38.737,13.398,78.792,14.195,118.936L735.303,1202.988z"/>
				</g>
			</g>
		</g>
		<g style="clip-path:url(#SVGID_00000170236829474992400570000000141967116202865574_);">
			<g>
				<g>
					<path style="fill:#FF0BA8;" d="M-88.492,643.78h-1.729l-0.001-222.873C-90.223,259.943-90.224,98.98-90.22-61.984h1.729
						c-0.004,160.964-0.003,321.927-0.002,482.891L-88.492,643.78z"/>
				</g>
				<g>
					<path style="fill:#F40BAC;" d="M-88.493,610.215l-1.727-0.086C-79.227,390.28-67.683,166.99-55.909-53.539l1.727,0.092
						C-65.956,167.08-77.5,390.368-88.493,610.215z"/>
				</g>
				<g>
					<path style="fill:#E90BB0;" d="M-88.496,576.654l-1.72-0.181c1.339-12.718,2.648-25.44,3.957-38.162
						c4.431-43.057,9.012-87.579,14.724-131.226c5.389-41.181,8.192-82.727,10.903-122.905c0.572-8.485,1.146-16.989,1.745-25.523
						c1.797-25.614,6.292-51.237,10.638-76.017c3.094-17.643,6.294-35.887,8.493-53.971c3.634-29.9,7.159-60.323,10.568-89.744
						c2.765-23.861,5.623-48.535,8.524-72.793l1.717,0.205c-2.901,24.254-5.76,48.927-8.524,72.787
						c-3.409,29.423-6.934,59.848-10.569,89.753c-2.204,18.129-5.408,36.396-8.506,54.062c-4.339,24.736-8.825,50.314-10.616,75.839
						c-0.599,8.532-1.172,17.035-1.744,25.519c-2.713,40.204-5.518,81.777-10.914,123.013
						c-5.708,43.622-10.289,88.133-14.719,131.178C-85.848,551.212-87.158,563.935-88.496,576.654z"/>
				</g>
				<g>
					<path style="fill:#DE0BB4;" d="M-88.503,543.097l-1.706-0.284c9.658-57.949,18.526-110.239,29.251-163.362l0.651-3.222
						c4.488-22.201,9.129-45.158,11.183-68.032c0.634-7.061,1.05-14.211,1.452-21.125c0.792-13.605,1.611-27.673,4.128-41.544
						c3.629-19.999,9.709-39.679,15.589-58.71c5.372-17.388,10.928-35.368,14.594-53.534c5.665-28.067,11.263-56.637,16.677-84.266
						c3.791-19.344,7.71-39.346,11.62-59.009l1.696,0.337C12.723,10.006,8.803,30.007,5.013,49.35
						C-0.401,76.981-6,105.553-11.666,133.625c-3.684,18.252-9.252,36.274-14.637,53.703c-5.865,18.982-11.93,38.611-15.54,58.509
						c-2.498,13.767-3.314,27.782-4.102,41.335c-0.403,6.928-0.82,14.091-1.457,21.18c-2.062,22.969-6.713,45.973-11.21,68.22
						l-0.651,3.222C-69.983,432.89-78.848,485.165-88.503,543.097z"/>
				</g>
				<g>
					<path style="fill:#D30BB9;" d="M-88.514,509.546l-1.684-0.397c10.178-43.255,21.659-86.848,32.762-129.006
						c2.26-8.58,4.52-17.164,6.773-25.754c4.365-16.645,6.706-34.146,8.971-51.07c3.035-22.684,6.174-46.139,14.225-67.861
						c5.23-14.111,11.788-27.601,18.129-40.648c8.174-16.816,16.626-34.204,22.225-52.954C26.465,96.38,39.322,50.504,50.307,11.074
						l1.666,0.464C40.986,50.976,28.126,96.861,14.544,142.35c-5.638,18.885-14.122,36.337-22.326,53.215
						c-6.323,13.009-12.862,26.461-18.063,40.493c-7.984,21.541-11.11,44.9-14.132,67.489c-2.271,16.976-4.621,34.531-9.012,51.28
						c-2.253,8.591-4.514,17.175-6.773,25.756C-66.864,422.73-78.342,466.312-88.514,509.546z"/>
				</g>
				<g>
					<path style="fill:#C80BBD;" d="M-88.531,475.997l-1.651-0.517c7.271-23.257,15.473-46.631,23.405-69.234
						c8.475-24.151,17.238-49.124,24.874-73.983c3.612-11.758,6.011-23.97,8.331-35.781c4.549-23.153,9.252-47.095,23.31-67.919
						c4.561-6.756,9.845-13.078,14.955-19.193c3.641-4.356,7.406-8.861,10.867-13.474c9.976-13.295,15.832-27.826,22.033-43.21
						l0.543-1.346c15.372-38.116,30.656-80.315,46.725-129.011l1.642,0.542C70.422,71.602,55.126,113.836,39.74,151.986
						l-0.543,1.346c-6.244,15.492-12.142,30.125-22.254,43.602c-3.489,4.65-7.268,9.172-10.924,13.546
						c-5.082,6.081-10.337,12.369-14.849,19.051c-13.862,20.534-18.323,43.243-23.046,67.285
						c-2.329,11.854-4.737,24.112-8.375,35.956c-7.646,24.892-16.415,49.881-24.895,74.048
						C-73.072,429.408-81.269,452.767-88.531,475.997z"/>
				</g>
				<g>
					<path style="fill:#BD0CC1;" d="M-88.545,442.454l-1.601-0.654c6.512-15.944,13.909-32.05,21.063-47.625
						c13.537-29.473,27.535-59.951,36.438-91.183l1.115-3.924c8.181-28.822,15.246-53.715,39.643-74.723
						c3.374-2.906,6.945-5.709,10.398-8.421c6.431-5.049,13.08-10.27,18.694-16.336c10.299-11.128,17.034-25.184,23.547-38.778
						c0.968-2.021,1.934-4.036,2.908-6.036c18.583-38.156,35.055-79.813,53.408-135.07l1.642,0.545
						c-18.378,55.332-34.877,97.055-53.495,135.282c-0.972,1.997-1.936,4.008-2.903,6.026c-6.569,13.71-13.361,27.886-23.837,39.206
						c-5.707,6.167-12.411,11.431-18.895,16.522c-3.438,2.699-6.993,5.491-10.338,8.371c-24.003,20.67-31.003,45.33-39.108,73.885
						l-1.115,3.925c-8.939,31.36-22.966,61.898-36.53,91.43C-74.658,410.456-82.048,426.545-88.545,442.454z"/>
				</g>
				<g>
					<path style="fill:#B20CC5;" d="M-88.546,408.909l-1.531-0.804c2.074-3.949,4.147-7.887,6.217-11.816
						c20.496-38.925,39.856-75.691,56.262-115.802c10.609-25.937,26.567-42.919,55.079-58.618
						c32.079-17.662,46.651-42.271,61.103-70.265c22.767-44.102,39.286-90.768,57.005-142.809l1.637,0.557
						c-17.742,52.108-34.284,98.838-57.105,143.045c-14.583,28.25-29.3,53.09-61.805,70.987
						c-28.132,15.489-43.868,32.223-54.313,57.757c-16.439,40.189-35.817,76.99-56.333,115.953
						C-84.399,401.024-86.472,404.961-88.546,408.909z"/>
				</g>
				<g>
					<path style="fill:#A70CC9;" d="M-88.555,375.362L-90,374.411c3.295-5.008,6.624-10.003,9.955-14.999
						c10.524-15.787,21.407-32.112,31.052-48.768c3.45-5.959,6.586-12.277,9.618-18.386c5.294-10.667,10.769-21.698,18.161-31.346
						c14.654-19.126,33.877-26.993,54.23-35.32c4.686-1.918,9.532-3.9,14.363-6.04c32.474-14.387,48.546-46.512,64.089-77.58
						l0.596-1.191c20.227-40.422,36.477-83.524,52.192-125.206c2.7-7.161,5.398-14.318,8.115-21.46l1.616,0.615
						c-2.716,7.14-5.413,14.296-8.113,21.455c-15.73,41.724-31.996,84.869-52.264,125.371l-0.595,1.19
						c-15.679,31.341-31.893,63.749-64.935,78.388c-4.853,2.15-9.711,4.137-14.408,6.059c-20.129,8.236-39.141,16.016-53.511,34.772
						c-7.29,9.515-12.727,20.469-17.985,31.063c-3.044,6.134-6.193,12.477-9.671,18.484c-9.672,16.704-20.57,33.052-31.109,48.861
						C-81.935,365.365-85.262,370.357-88.555,375.362z"/>
				</g>
				<g>
					<path style="fill:#9C0CCD;" d="M-88.591,341.814l-1.354-1.077c16.872-21.205,30.4-39.556,42.573-57.753
						c9.38-14.022,20.076-28.384,34.7-38.445c13.625-9.374,29.34-13.446,44.539-17.383c11.856-3.072,24.116-6.248,35.263-11.923
						c29.403-14.968,47.55-52.049,62.132-81.844c1.381-2.822,2.731-5.58,4.057-8.251c12.795-25.78,24.575-52.578,35.967-78.495
						c9.647-21.946,19.622-44.64,30.174-66.624l1.559,0.748C190.479,2.727,180.51,25.407,170.869,47.34
						c-11.4,25.935-23.188,52.753-36.002,78.569c-1.324,2.667-2.672,5.423-4.052,8.241c-14.695,30.026-32.983,67.395-62.901,82.625
						c-11.316,5.761-23.668,8.96-35.614,12.056c-15.053,3.9-30.619,7.933-43.992,17.134c-14.383,9.896-24.958,24.103-34.243,37.982
						C-58.134,302.183-71.689,320.571-88.591,341.814z"/>
				</g>
				<g>
					<path style="fill:#910CD1;" d="M-88.672,308.268l-1.271-1.173c5.474-5.93,10.884-12.257,16.116-18.374
						c20.109-23.516,40.902-47.833,71.762-57.77c10.589-3.41,21.964-5.091,32.964-6.716c19.181-2.834,39.015-5.765,54.966-18.003
						c27.125-20.809,45.32-56.635,61.372-88.244c2.003-3.944,3.967-7.811,5.904-11.558c4.527-8.762,9.055-17.703,13.433-26.35
						c18.625-36.787,37.884-74.826,62.357-109.212l1.409,1.003c-24.398,34.28-43.628,72.261-62.224,108.99
						c-4.38,8.65-8.908,17.595-13.439,26.363c-1.935,3.744-3.896,7.607-5.898,11.548c-16.136,31.773-34.426,67.785-61.861,88.833
						c-16.307,12.51-36.366,15.474-55.766,18.341c-10.931,1.615-22.235,3.286-32.687,6.652
						c-30.394,9.788-51.025,33.915-70.978,57.248C-77.755,295.975-83.176,302.313-88.672,308.268z"/>
				</g>
				<g>
					<path style="fill:#860CD6;" d="M-88.799,274.706l-1.199-1.246c32.598-31.367,59.43-50.3,100.116-54.254
						c5.202-0.506,10.332-0.896,15.292-1.275c29.36-2.236,54.716-4.168,77.321-27.604c28.175-29.211,48.503-64.785,68.162-99.187
						c24.829-43.45,50.504-88.379,92.179-120.69l1.06,1.367c-41.405,32.101-66.992,76.879-91.737,120.182
						c-19.712,34.494-40.094,70.163-68.419,99.53c-23.062,23.91-48.722,25.864-78.434,28.128
						c-4.952,0.377-10.073,0.767-15.257,1.271C-29.9,224.833-56.476,243.603-88.799,274.706z"/>
				</g>
				<g>
					<path style="fill:#7B0CDA;" d="M-88.909,241.174l-1.054-1.37c36.976-28.435,70.98-33.367,110.661-32.021
						c1.897,0.064,3.806,0.139,5.722,0.214c15.871,0.621,32.284,1.262,47.388-3.805c17.853-5.989,32.453-20.194,44.381-33.3
						c19.369-21.284,35.25-45.931,50.608-69.766c7.908-12.273,16.085-24.963,24.635-37.034
						c28.781-40.631,61.55-66.705,109.573-87.186l0.678,1.591c-47.707,20.346-80.257,46.244-108.84,86.595
						c-8.528,12.039-16.694,24.714-24.592,36.97c-15.396,23.895-31.316,48.603-50.782,69.993
						c-12.077,13.271-26.882,27.662-45.11,33.777c-15.404,5.167-31.977,4.52-48.005,3.893c-1.913-0.075-3.818-0.149-5.712-0.213
						C-18.671,208.174-52.341,213.053-88.909,241.174z"/>
				</g>
				<g>
					<path style="fill:#700CDE;" d="M-89.005,207.669l-0.84-1.512c37.043-20.581,71.018-16.896,110.357-12.63
						c3.36,0.364,6.758,0.733,10.198,1.091c39.55,4.109,70.022-9.443,101.888-45.322c12.952-14.582,24.646-30.632,35.955-46.152
						c13.509-18.54,27.479-37.712,43.715-54.563c35.587-36.934,81.674-49.805,133.852-61.723l0.385,1.686
						C294.603,0.399,248.771,13.19,213.515,49.781c-16.154,16.766-30.088,35.889-43.563,54.382
						c-11.333,15.554-23.053,31.637-36.06,46.282c-32.279,36.343-63.19,50.071-103.36,45.894c-3.442-0.358-6.843-0.727-10.205-1.091
						C-18.722,191.011-52.442,187.355-89.005,207.669z"/>
				</g>
				<g>
					<path style="fill:#650CE2;" d="M51.639,180.368c-1.866,0-3.75-0.05-5.666-0.154c-15.911-0.861-31.047-3.827-45.684-6.696
						c-29.704-5.822-57.76-11.319-89.376,0.619l-0.611-1.618c32.076-12.113,60.368-6.568,90.319-0.699
						c14.579,2.857,29.654,5.812,45.445,6.666c45.03,2.44,75.956-25.035,100.261-52.231c7.72-8.638,15.27-17.944,22.572-26.944
						c19.341-23.84,39.341-48.49,65.674-65.053c36.689-23.077,81.665-28.306,125.161-33.363c10.317-1.199,20.061-2.332,29.759-3.702
						l0.241,1.712c-9.719,1.373-19.474,2.507-29.801,3.707c-43.304,5.034-88.082,10.241-124.44,33.109
						c-26.09,16.41-45.999,40.948-65.251,64.679c-7.314,9.015-14.878,18.338-22.625,27.007
						C124.067,153.759,94.342,180.368,51.639,180.368z"/>
				</g>
				<g>
					<path style="fill:#5A0CE6;" d="M62.503,160.921c-1.561,0-3.131-0.04-4.724-0.124c-20.274-1.058-39.45-6.643-57.995-12.043
						c-29.404-8.563-57.179-16.651-88.923-8.207l-0.445-1.671c32.21-8.569,60.209-0.414,89.852,8.218
						c18.45,5.373,37.528,10.929,57.601,11.977c42.773,2.232,73.73-26.829,101.774-56.787c2.757-2.945,5.5-5.91,8.243-8.875
						c25.412-27.467,51.69-55.869,89.38-67.582c34.327-10.667,70.273-12.751,105.036-14.767c22.342-1.296,45.445-2.636,67.909-6.24
						l0.274,1.707c-22.551,3.618-45.698,4.961-68.083,6.259c-34.659,2.01-70.498,4.089-104.623,14.693
						c-37.248,11.574-63.366,39.804-88.624,67.104c-2.745,2.967-5.49,5.934-8.25,8.882
						C133.621,132.612,103.572,160.921,62.503,160.921z"/>
				</g>
				<g>
					<path style="fill:#4F0DEA;" d="M70.012,140.328c-3.313,0-6.688-0.198-10.133-0.612c-20.628-2.477-40.138-10.006-59.006-17.288
						c-29.644-11.44-57.643-22.245-90.053-15.525l-0.351-1.693c32.905-6.825,62.452,4.578,91.027,15.605
						c18.768,7.243,38.176,14.733,58.59,17.185c45.112,5.417,78.667-27.11,108.277-55.807c1.489-1.444,2.972-2.88,4.448-4.305
						c32.848-31.704,63.559-52.635,115.088-59.008c22.603-2.797,46.513-2.397,69.637-2.012c36.369,0.607,73.98,1.234,107.931-10.437
						l0.562,1.636c-34.239,11.769-72.005,11.139-108.522,10.531c-23.064-0.384-46.913-0.782-69.397,1.998
						c-51.052,6.315-81.507,27.079-114.099,58.536c-1.475,1.424-2.956,2.859-4.445,4.302
						C141.92,110.227,110.862,140.327,70.012,140.328z"/>
				</g>
				<g>
					<path style="fill:#440DEE;" d="M77.253,118.932c-1.913,0-3.842-0.071-5.795-0.216c-25.463-1.892-48.682-12.724-71.136-23.2
						c-27.904-13.018-56.755-26.478-89.566-22.21l-0.223-1.715c33.307-4.335,62.392,9.235,90.52,22.358
						c22.313,10.41,45.386,21.174,70.534,23.043c38.577,2.859,68.105-23.028,96.664-48.069c6.151-5.393,11.961-10.488,17.858-15.292
						c40.41-32.919,81.624-39.199,135.029-38.665c13.804,0.138,28.147,1.142,42.018,2.112c46.006,3.218,93.579,6.546,133.312-20.142
						l0.964,1.435c-40.226,27.02-88.1,23.671-134.397,20.431c-13.845-0.969-28.162-1.97-41.915-2.108
						c-53.008-0.533-93.913,5.686-133.919,38.276c-5.873,4.784-11.671,9.868-17.81,15.251
						C143.273,93.125,113.84,118.931,77.253,118.932z"/>
				</g>
				<g>
					<path style="fill:#390DF3;" d="M82.192,96.446c-0.552,0-1.1-0.005-1.655-0.016C50.795,95.836,24.638,81.637-0.659,67.906
						C-28.076,53.023-56.436,37.64-89.301,39.703l-0.109-1.726c33.367-2.098,61.944,13.409,89.577,28.409
						C25.281,80.019,51.25,94.115,80.571,94.701c34.511,0.696,61.77-20.854,88.133-41.689c10.111-7.991,20.566-16.254,31.107-22.926
						c43.311-27.419,94.644-22.477,144.287-17.698c2.935,0.282,5.859,0.564,8.771,0.838c6.638,0.624,13.417,1.341,19.973,2.033
						c24.272,2.566,49.374,5.219,73.936,3.901c31.448-1.688,55.239-19.702,78.843-39.615l1.115,1.322
						c-22.887,19.309-47.908,38.304-79.864,40.02c-24.702,1.329-49.871-1.334-74.211-3.908c-6.551-0.693-13.324-1.409-19.953-2.032
						c-2.912-0.274-5.838-0.555-8.775-0.838c-49.352-4.75-100.385-9.664-143.197,17.437c-10.464,6.625-20.884,14.859-30.96,22.822
						C143.595,75.06,116.531,96.444,82.192,96.446z"/>
				</g>
				<g>
					<path style="fill:#2E0DF7;" d="M86.669,72.894C54.091,72.895,26.067,55.948-1.044,39.557
						c-27.207-16.45-55.34-33.46-88.156-33.46c-0.052,0-0.102,0-0.155,0l-0.003-1.729c0.051,0,0.107,0,0.158,0
						c33.3,0,61.638,17.135,89.05,33.709c27.032,16.344,54.984,33.222,87.271,33.087c31.501-0.155,57.044-18.209,81.747-35.669
						c14.436-10.203,29.364-20.754,45.335-27.639c40.824-17.598,91.669-8.79,136.529-1.019c10.867,1.883,21.131,3.661,31.034,5.046
						c3.78,0.529,7.557,1.096,11.556,1.696c24.46,3.672,52.183,7.834,76.003,1.47c26.768-7.151,49.131-25.623,70.758-43.487
						c4.682-3.868,9.525-7.868,14.255-11.61l1.072,1.356c-4.714,3.731-9.549,7.725-14.226,11.587
						c-21.77,17.982-44.281,36.577-71.413,43.825c-24.169,6.456-52.081,2.267-76.707-1.431c-3.995-0.6-7.768-1.166-11.539-1.694
						c-9.93-1.389-20.208-3.169-31.089-5.055c-44.622-7.73-95.198-16.491-135.549,0.903c-15.805,6.814-30.658,17.311-45.022,27.463
						c-24.922,17.615-50.692,35.829-82.737,35.986C86.978,72.893,86.821,72.894,86.669,72.894z"/>
				</g>
				<g>
					<path style="fill:#230DFB;" d="M90.353,48.762C56.333,48.763,26.96,29.469-1.517,10.765
						C-28.808-7.16-57.029-25.695-89.405-27.512l0.097-1.727C-56.468-27.396-28.05-8.731-0.567,9.32
						c30.451,20,61.941,40.685,98.819,37.357c26.507-2.389,48.87-16.572,70.497-30.287c18.857-11.959,38.356-24.325,60.702-29.066
						c24.684-5.238,51.982-0.665,76.067,3.368l3.466,0.58c14.941,2.49,30.046,5.473,44.654,8.358
						c18.305,3.615,37.233,7.353,55.993,10.15c29.347,4.376,58.105,7.021,87.277-8.453c15.059-7.988,29.006-18.23,42.493-28.134
						c14.116-10.367,28.713-21.086,44.678-29.307l0.792,1.538c-15.843,8.158-30.385,18.836-44.447,29.163
						c-13.537,9.941-27.535,20.221-42.706,28.268c-29.637,15.72-58.7,13.055-88.343,8.637c-18.8-2.803-37.748-6.545-56.073-10.164
						c-14.595-2.882-29.687-5.863-44.603-8.348l-3.467-0.58c-23.934-4.008-51.059-8.55-75.423-3.382
						c-22.042,4.677-41.407,16.958-60.135,28.835C147.874,31.676,125.33,45.973,98.407,48.4
						C95.694,48.644,93.008,48.762,90.353,48.762z"/>
				</g>
				<g>
					<path style="fill:#180DFF;" d="M94.724,23.72C58.796,23.722,28.121,2.193-1.647-18.696
						c-27.295-19.153-55.519-38.959-87.801-42.428l0.185-1.719c32.726,3.518,61.136,23.453,88.61,42.732
						c32.822,23.031,66.761,46.85,107.395,41.28c23.131-3.17,43.643-14.521,63.48-25.5c23.221-12.85,47.231-26.138,75.616-26.436
						c37.156-0.361,73.999,9.446,109.633,18.957c27.082,7.228,55.087,14.702,82.935,17.592c38.47,3.991,66.734-14.333,96.663-33.733
						c24.567-15.925,49.969-32.392,81.278-34.902l0.138,1.724c-30.873,2.475-56.089,18.821-80.475,34.629
						c-28.863,18.709-58.711,38.056-97.782,34.002c-27.984-2.904-56.056-10.396-83.203-17.641
						c-35.522-9.481-72.231-19.294-109.169-18.898c-27.947,0.293-51.764,13.473-74.796,26.219
						c-19.976,11.055-40.632,22.486-64.083,25.7C102.824,23.451,98.739,23.72,94.724,23.72z"/>
				</g>
			</g>
		</g>
		<g style="clip-path:url(#SVGID_00000170236829474992400570000000141967116202865574_);">
			<g>
				
					<radialGradient id="SVGID_00000065076934235759508600000003290812195741035649_" cx="383.9757" cy="2238.9658" r="68.8205" gradientTransform="matrix(0.9632 0 0 0.2019 16.3902 659.9348)" gradientUnits="userSpaceOnUse">
					<stop  offset="0" style="stop-color:#C137F7"/>
					<stop  offset="1" style="stop-color:#000000"/>
				</radialGradient>
				
					<ellipse style="fill:url(#SVGID_00000065076934235759508600000003290812195741035649_);" cx="386.236" cy="1111.982" rx="66.283" ry="13.896"/>
				
					<radialGradient id="SVGID_00000076579227065388363050000003625568791288176295_" cx="380.7" cy="2511.7192" r="68.8173" gradientTransform="matrix(0.9543 0.1299 -0.0272 0.2001 59.0839 595.1295)" gradientUnits="userSpaceOnUse">
					<stop  offset="0" style="stop-color:#C137F7"/>
					<stop  offset="1" style="stop-color:#000000"/>
				</radialGradient>
				<path style="fill:url(#SVGID_00000076579227065388363050000003625568791288176295_);" d="M419.745,1156.12
					c-1.035,7.604-31.279,9.765-67.552,4.826c-36.273-4.939-64.838-15.107-63.803-22.711c1.035-7.604,31.28-9.765,67.552-4.826
					C392.215,1138.347,420.78,1148.516,419.745,1156.12z"/>
				
					<radialGradient id="SVGID_00000155122144443238931730000012729555636175172783_" cx="252.8577" cy="3643.1128" r="68.8035" gradientTransform="matrix(0.9632 0 0 0.101 16.3902 803.2561)" gradientUnits="userSpaceOnUse">
					<stop  offset="0" style="stop-color:#C137F7"/>
					<stop  offset="1" style="stop-color:#000000"/>
				</radialGradient>
				
					<ellipse style="fill:url(#SVGID_00000155122144443238931730000012729555636175172783_);" cx="259.943" cy="1171.21" rx="66.283" ry="6.948"/>
				
					<radialGradient id="SVGID_00000120547308870800996440000016789578700261370552_" cx="350.8477" cy="1862.3986" r="47.9403" gradientTransform="matrix(0.8341 -0.4816 0.101 0.1749 -48.0923 1007.4973)" gradientUnits="userSpaceOnUse">
					<stop  offset="0" style="stop-color:#C137F7"/>
					<stop  offset="1" style="stop-color:#000000"/>
				</radialGradient>
				<path style="fill:url(#SVGID_00000120547308870800996440000016789578700261370552_);" d="M472.645,1141.173
					c2.673,4.63-13.065,18.722-35.152,31.474c-22.087,12.752-42.16,19.336-44.833,14.706c-2.674-4.63,13.065-18.722,35.152-31.474
					C449.899,1143.126,469.971,1136.542,472.645,1141.173z"/>
				
					<radialGradient id="SVGID_00000003063997965707444050000008689075694108420774_" cx="554.7999" cy="936.5684" r="47.9453" gradientTransform="matrix(0.2705 -0.9244 0.1938 0.0567 268.8502 1580.5258)" gradientUnits="userSpaceOnUse">
					<stop  offset="0" style="stop-color:#C137F7"/>
					<stop  offset="1" style="stop-color:#000000"/>
				</radialGradient>
				<path style="fill:url(#SVGID_00000003063997965707444050000008689075694108420774_);" d="M613.398,1076.45
					c5.132,1.501,3.486,22.562-3.676,47.04c-7.162,24.478-17.127,43.105-22.259,41.603c-5.132-1.501-3.486-22.562,3.676-47.04
					C598.3,1093.575,608.266,1074.949,613.398,1076.45z"/>
				
					<radialGradient id="SVGID_00000049179529840237248470000006605387531940466847_" cx="892.4379" cy="-624.9432" r="47.9521" gradientTransform="matrix(-0.1646 -1.5911 0.2008 -0.0208 912.7425 2300.5132)" gradientUnits="userSpaceOnUse">
					<stop  offset="0" style="stop-color:#C137F7"/>
					<stop  offset="1" style="stop-color:#000000"/>
				</radialGradient>
				<path style="fill:url(#SVGID_00000049179529840237248470000006605387531940466847_);" d="M632.468,817.264
					c5.318-0.55,13.162,33.16,17.52,75.294c4.358,42.134,3.579,76.736-1.739,77.286c-5.318,0.55-13.163-33.16-17.52-75.294
					C626.371,852.416,627.15,817.815,632.468,817.264z"/>
				
					<radialGradient id="SVGID_00000012436703631805648510000013053592722726081669_" cx="755.5516" cy="-579.4391" r="47.9492" gradientTransform="matrix(-0.0862 -1.5973 0.2016 -0.0109 843.2168 2299.1079)" gradientUnits="userSpaceOnUse">
					<stop  offset="0" style="stop-color:#C137F7"/>
					<stop  offset="1" style="stop-color:#000000"/>
				</radialGradient>
				<path style="fill:url(#SVGID_00000012436703631805648510000013053592722726081669_);" d="M657.142,1021.996
					c5.339-0.288,11.517,33.767,13.799,76.064c2.282,42.297-0.196,76.819-5.535,77.107c-5.339,0.288-11.517-33.767-13.799-76.064
					C649.324,1056.806,651.803,1022.284,657.142,1021.996z"/>
				
					<radialGradient id="SVGID_00000041261116139215769800000001853743728325281201_" cx="827.7289" cy="-328.8395" r="47.9473" gradientTransform="matrix(0.0537 -1.5987 0.2018 0.0068 705.1268 2286.3652)" gradientUnits="userSpaceOnUse">
					<stop  offset="0" style="stop-color:#C137F7"/>
					<stop  offset="1" style="stop-color:#000000"/>
				</radialGradient>
				<path style="fill:url(#SVGID_00000041261116139215769800000001853743728325281201_);" d="M685.793,884.185
					c5.344,0.18,8.522,34.644,7.099,76.979c-1.423,42.334-6.909,76.508-12.253,76.328s-8.522-34.644-7.099-76.979
					C674.964,918.179,680.449,884.006,685.793,884.185z"/>
				
					<radialGradient id="SVGID_00000013152359027557643550000010949481541647563453_" cx="850.7903" cy="-846.9828" r="46.9888" gradientTransform="matrix(-0.1646 -1.5911 0.2008 -0.0208 921.3031 2296.9138)" gradientUnits="userSpaceOnUse">
					<stop  offset="0" style="stop-color:#C137F7"/>
					<stop  offset="1" style="stop-color:#000000"/>
				</radialGradient>
				<path style="fill:url(#SVGID_00000013152359027557643550000010949481541647563453_);" d="M603.457,886.082
					c5.212-0.539,12.898,32.494,17.169,73.781c4.27,41.287,3.507,75.194-1.704,75.733c-5.212,0.539-12.898-32.494-17.169-73.781
					C597.482,920.528,598.245,886.621,603.457,886.082z"/>
				
					<radialGradient id="SVGID_00000136389954032311822830000015153460424595976064_" cx="801.8892" cy="-369.5831" r="27.8669" gradientTransform="matrix(0.0537 -1.5987 0.2018 0.0068 712.3657 2282.7749)" gradientUnits="userSpaceOnUse">
					<stop  offset="0" style="stop-color:#C137F7"/>
					<stop  offset="1" style="stop-color:#000000"/>
				</radialGradient>
				<path style="fill:url(#SVGID_00000136389954032311822830000015153460424595976064_);" d="M682.343,953.731
					c3.106,0.104,4.953,20.135,4.126,44.74c-0.827,24.605-4.015,44.466-7.121,44.362c-3.106-0.104-4.953-20.135-4.126-44.74
					C676.049,973.488,679.237,953.626,682.343,953.731z"/>
				
					<radialGradient id="SVGID_00000095307193828442405070000016182579434258646711_" cx="816.8241" cy="-52.7423" r="47.9432" gradientTransform="matrix(0.1664 -0.9487 0.1989 0.0349 538.0928 1544.7301)" gradientUnits="userSpaceOnUse">
					<stop  offset="0" style="stop-color:#C137F7"/>
					<stop  offset="1" style="stop-color:#000000"/>
				</radialGradient>
				<path style="fill:url(#SVGID_00000095307193828442405070000016182579434258646711_);" d="M671.503,722.484
					c5.266,0.924,5.963,22.037,1.555,47.158c-4.408,25.121-12.25,44.736-17.516,43.812c-5.266-0.924-5.962-22.037-1.555-47.158
					C658.394,741.175,666.236,721.56,671.503,722.484z"/>
				
					<radialGradient id="SVGID_00000050636447925786248070000004387809677015699330_" cx="750.9863" cy="-323.1563" r="47.9431" gradientTransform="matrix(0.1664 -0.9487 0.1989 0.0349 538.0928 1544.7301)" gradientUnits="userSpaceOnUse">
					<stop  offset="0" style="stop-color:#C137F7"/>
					<stop  offset="1" style="stop-color:#000000"/>
				</radialGradient>
				<path style="fill:url(#SVGID_00000050636447925786248070000004387809677015699330_);" d="M606.762,775.506
					c5.266,0.924,5.963,22.037,1.555,47.158c-4.407,25.121-12.25,44.736-17.516,43.812c-5.266-0.924-5.963-22.037-1.555-47.158
					S601.495,774.582,606.762,775.506z"/>
				
					<radialGradient id="SVGID_00000052079811592545434700000015913750877358157750_" cx="435.0922" cy="1796.0923" r="35.1666" gradientTransform="matrix(0.7573 -0.5951 0.1248 0.1588 -30.5421 1115.703)" gradientUnits="userSpaceOnUse">
					<stop  offset="0" style="stop-color:#C137F7"/>
					<stop  offset="1" style="stop-color:#000000"/>
				</radialGradient>
				<path style="fill:url(#SVGID_00000052079811592545434700000015913750877358157750_);" d="M549.74,1121.068
					c2.423,3.084-7.537,14.955-22.247,26.515c-14.71,11.56-28.599,18.431-31.023,15.347c-2.423-3.084,7.537-14.955,22.247-26.515
					C533.427,1124.855,547.317,1117.984,549.74,1121.068z"/>
			</g>
			<g>
				
					<radialGradient id="SVGID_00000175323202552258532490000008910832102472241539_" cx="1488.8218" cy="-3598.8457" r="40.3401" gradientTransform="matrix(0.6513 -1.4611 0.1844 0.0822 -215.4655 2568.4492)" gradientUnits="userSpaceOnUse">
					<stop  offset="0" style="stop-color:#C137F7"/>
					<stop  offset="1" style="stop-color:#000000"/>
				</radialGradient>
				<path style="fill:url(#SVGID_00000175323202552258532490000008910832102472241539_);" d="M116.848,38.371
					c4.109,1.831-4.323,29.703-18.831,62.252c-14.509,32.55-29.602,57.451-33.71,55.62c-4.109-1.831,4.322-29.703,18.831-62.252
					C97.647,61.441,112.739,36.539,116.848,38.371z"/>
				
					<radialGradient id="SVGID_00000029022061695063516730000013690297121798872973_" cx="1514.0215" cy="-3547.1021" r="40.3443" gradientTransform="matrix(0.936 -1.2972 0.1637 0.1181 -672.6768 2491.9968)" gradientUnits="userSpaceOnUse">
					<stop  offset="0" style="stop-color:#C137F7"/>
					<stop  offset="1" style="stop-color:#000000"/>
				</radialGradient>
				<path style="fill:url(#SVGID_00000029022061695063516730000013690297121798872973_);" d="M201.543,56.769
					c3.648,2.632-10.299,28.193-31.151,57.092s-40.714,50.193-44.362,47.561c-3.648-2.632,10.299-28.193,31.152-57.092
					C178.034,75.431,197.895,54.137,201.543,56.769z"/>
				
					<radialGradient id="SVGID_00000021092006835854941370000008228309799019183751_" cx="1473.0469" cy="-4006.0039" r="40.3371" gradientTransform="matrix(0.5671 -1.627 0.2493 0.0869 202.5979 2804.8203)" gradientUnits="userSpaceOnUse">
					<stop  offset="0" style="stop-color:#C137F7"/>
					<stop  offset="1" style="stop-color:#000000"/>
				</radialGradient>
				<path style="fill:url(#SVGID_00000021092006835854941370000008228309799019183751_);" d="M62.142-5.579
					c5.554,1.936-0.186,32.889-12.82,69.135c-12.634,36.247-27.378,64.061-32.932,62.125c-5.554-1.936,0.186-32.889,12.82-69.135
					C41.844,20.299,56.589-7.515,62.142-5.579z"/>
				
					<radialGradient id="SVGID_00000178163876513371335650000001372493582395050935_" cx="1421.6721" cy="-4237.9204" r="25.3699" gradientTransform="matrix(0.8764 -1.5179 0.4281 0.2472 619.4404 3385.075)" gradientUnits="userSpaceOnUse">
					<stop  offset="0" style="stop-color:#C137F7"/>
					<stop  offset="1" style="stop-color:#000000"/>
				</radialGradient>
				<path style="fill:url(#SVGID_00000178163876513371335650000001372493582395050935_);" d="M73.373,140.996
					c5.999,3.463,0.907,23.512-11.372,44.78c-12.279,21.268-27.096,35.701-33.095,32.238c-5.998-3.463-0.907-23.512,11.372-44.78
					C52.558,151.966,67.375,137.533,73.373,140.996z"/>
				
					<radialGradient id="SVGID_00000071553553108061081860000005873275758499396520_" cx="1477.2855" cy="-3689.6001" r="29.2327" gradientTransform="matrix(0.738 -1.5569 0.2386 0.1131 -66.0848 2822.8953)" gradientUnits="userSpaceOnUse">
					<stop  offset="0" style="stop-color:#C137F7"/>
					<stop  offset="1" style="stop-color:#000000"/>
				</radialGradient>
				<path style="fill:url(#SVGID_00000071553553108061081860000005873275758499396520_);" d="M165.39,60.098
					c3.852,1.826-2.686,23.685-14.602,48.823c-11.916,25.138-24.699,44.037-28.55,42.211c-3.852-1.826,2.686-23.685,14.602-48.823
					C148.756,77.171,161.538,58.273,165.39,60.098z"/>
				
					<radialGradient id="SVGID_00000132079441231433209010000003266618351332629685_" cx="1123.4314" cy="-2955.4443" r="40.335" gradientTransform="matrix(-1.664 0.447 -0.0685 -0.255 1799.9998 -1218.7098)" gradientUnits="userSpaceOnUse">
					<stop  offset="0" style="stop-color:#C137F7"/>
					<stop  offset="1" style="stop-color:#000000"/>
				</radialGradient>
				<path style="fill:url(#SVGID_00000132079441231433209010000003266618351332629685_);" d="M65.934,55.133
					c-1.526-5.68,27.289-18.357,64.361-28.315c37.071-9.958,68.36-13.426,69.886-7.746c1.526,5.68-27.289,18.357-64.361,28.315
					C98.749,57.345,67.46,60.813,65.934,55.133z"/>
				
					<radialGradient id="SVGID_00000046309539689222050660000008271983713333468053_" cx="928.4839" cy="-3215.7126" r="26.1659" gradientTransform="matrix(-1.664 0.447 -0.0685 -0.255 1799.9998 -1218.7098)" gradientUnits="userSpaceOnUse">
					<stop  offset="0" style="stop-color:#C137F7"/>
					<stop  offset="1" style="stop-color:#000000"/>
				</radialGradient>
				<path style="fill:url(#SVGID_00000046309539689222050660000008271983713333468053_);" d="M431.735,28.026
					c-0.99-3.685,17.703-11.908,41.752-18.368c24.049-6.46,44.346-8.71,45.336-5.025c0.99,3.685-17.703,11.909-41.752,18.369
					C453.022,29.461,432.725,31.711,431.735,28.026z"/>
				
					<radialGradient id="SVGID_00000071536837975465058680000008648118227304294815_" cx="1037.9985" cy="-2701.8276" r="40.3375" gradientTransform="matrix(-1.7211 -0.082 0.0126 -0.2637 2163.9592 -611.0268)" gradientUnits="userSpaceOnUse">
					<stop  offset="0" style="stop-color:#C137F7"/>
					<stop  offset="1" style="stop-color:#000000"/>
				</radialGradient>
				<path style="fill:url(#SVGID_00000071536837975465058680000008648118227304294815_);" d="M273.993,13.021
					c0.28-5.875,31.589-9.156,69.931-7.329c38.342,1.827,69.197,8.071,68.917,13.945c-0.28,5.875-31.589,9.156-69.931,7.329
					C304.568,25.139,273.713,18.896,273.993,13.021z"/>
				
					<radialGradient id="SVGID_00000046336916836664003890000011465177652520251061_" cx="1252.1417" cy="-2896.552" r="24.8062" gradientTransform="matrix(-1.6664 -0.4379 0.0671 -0.2553 2304.3118 -85.5612)" gradientUnits="userSpaceOnUse">
					<stop  offset="0" style="stop-color:#C137F7"/>
					<stop  offset="1" style="stop-color:#000000"/>
				</radialGradient>
				<path style="fill:url(#SVGID_00000046336916836664003890000011465177652520251061_);" d="M-17.951,94.754
					c0.919-3.498,20.171-1.471,43,4.528c22.829,5.999,40.59,13.697,39.671,17.195c-0.919,3.498-20.171,1.471-43-4.528
					C-1.109,105.95-18.871,98.252-17.951,94.754z"/>
				
					<radialGradient id="SVGID_00000020382203547227915060000007044351131293616051_" cx="1202.5701" cy="-3549.7964" r="30.5212" gradientTransform="matrix(-1.664 0.447 -0.0685 -0.255 1799.9998 -1218.7098)" gradientUnits="userSpaceOnUse">
					<stop  offset="0" style="stop-color:#C137F7"/>
					<stop  offset="1" style="stop-color:#000000"/>
				</radialGradient>
				<path style="fill:url(#SVGID_00000020382203547227915060000007044351131293616051_);" d="M-8.707,237.681
					c-1.154-4.298,20.65-13.891,48.701-21.426c28.051-7.535,51.728-10.159,52.882-5.861c1.154,4.298-20.65,13.891-48.701,21.426
					C16.123,239.355-7.553,241.979-8.707,237.681z"/>
			</g>
		</g>
	</g>
</g>
</svg>
