<?xml version="1.0" encoding="UTF-8"?>
<!DOCTYPE svg PUBLIC "-//W3C//DTD SVG 1.1//EN" "http://www.w3.org/Graphics/SVG/1.1/DTD/svg11.dtd">
<svg xmlns="http://www.w3.org/2000/svg" version="1.1" width="1067px" height="1600px" style="shape-rendering:geometricPrecision; text-rendering:geometricPrecision; image-rendering:optimizeQuality; fill-rule:evenodd; clip-rule:evenodd" xmlns:xlink="http://www.w3.org/1999/xlink">
<g><path style="opacity:1" fill="#000100" d="M -0.5,-0.5 C 354.833,-0.5 710.167,-0.5 1065.5,-0.5C 1065.5,532.5 1065.5,1065.5 1065.5,1598.5C 710.167,1598.5 354.833,1598.5 -0.5,1598.5C -0.5,1065.5 -0.5,532.5 -0.5,-0.5 Z"/></g>
<g><path style="opacity:1" fill="#d3d5d3" d="M 438.5,125.5 C 438.167,125.5 437.833,125.5 437.5,125.5C 437.167,125.5 436.833,125.5 436.5,125.5C 439.908,119.24 443.575,113.074 447.5,107C 445.811,107.134 444.144,107.634 442.5,108.5C 444.401,106.204 446.734,104.371 449.5,103C 418.274,78.455 386.94,53.955 355.5,29.5C 343.233,49.4091 331.233,69.5758 319.5,90C 320.056,90.3826 320.389,90.8826 320.5,91.5C 318.807,92.4749 317.307,93.8082 316,95.5C 311.517,103.99 307.017,112.49 302.5,121C 304.401,122.729 306.068,124.562 307.5,126.5C 302.5,127.833 297.5,127.833 292.5,126.5C 296.154,124.076 299.321,121.076 302,117.5C 317.837,89.7243 334.003,61.5577 350.5,33C 349.092,32.6848 347.759,33.0181 346.5,34C 329.076,45.8386 311.743,57.8386 294.5,70C 295.71,71.0391 296.71,72.2058 297.5,73.5C 295.956,73.2969 294.622,72.6302 293.5,71.5C 282.846,89.1638 272.513,106.83 262.5,124.5C 261.833,124.5 261.5,124.167 261.5,123.5C 271.416,105.332 281.583,87.3323 292,69.5C 312.802,54.9995 333.802,40.9995 355,27.5C 386.584,51.8859 418.417,76.2193 450.5,100.5C 451.614,101.723 451.781,103.056 451,104.5C 446.807,111.563 442.641,118.563 438.5,125.5 Z"/></g>
<g><path style="opacity:1" fill="#020302" d="M 442.5,108.5 C 440.973,108.427 439.973,109.094 439.5,110.5C 435.608,112.062 432.275,114.395 429.5,117.5C 425.975,118.759 422.975,120.759 420.5,123.5C 418.745,124.072 417.078,124.906 415.5,126C 399.17,126.5 382.837,126.667 366.5,126.5C 366.167,126.5 365.833,126.5 365.5,126.5C 346.806,126.477 327.806,126.477 308.5,126.5C 308.167,126.5 307.833,126.5 307.5,126.5C 306.068,124.562 304.401,122.729 302.5,121C 307.017,112.49 311.517,103.99 316,95.5C 317.307,93.8082 318.807,92.4749 320.5,91.5C 320.389,90.8826 320.056,90.3826 319.5,90C 331.233,69.5758 343.233,49.4091 355.5,29.5C 386.94,53.955 418.274,78.455 449.5,103C 446.734,104.371 444.401,106.204 442.5,108.5 Z"/></g>
<g><path style="opacity:1" fill="#020402" d="M 899.5,54.5 C 901.332,65.1525 903.166,75.8192 905,86.5C 904.944,77.556 903.778,68.7226 901.5,60C 901.528,58.9302 901.861,58.0968 902.5,57.5C 921.381,85.3979 940.714,113.065 960.5,140.5C 953.082,144.539 945.749,148.539 938.5,152.5C 936.53,144.231 935.864,135.565 936.5,126.5C 928.5,126.5 920.5,126.5 912.5,126.5C 912.5,125.5 912.5,124.5 912.5,123.5C 912.005,121.518 911.505,119.518 911,117.5C 910.211,119.712 910.378,121.712 911.5,123.5C 911.5,124.5 911.5,125.5 911.5,126.5C 875.663,126.832 839.996,126.498 804.5,125.5C 800.648,120.143 796.981,114.643 793.5,109C 802.004,104.094 810.338,99.2607 818.5,94.5C 824.133,91.8935 829.8,89.2269 835.5,86.5C 836.298,86.0431 836.631,85.3764 836.5,84.5C 837.873,84.6567 839.207,84.49 840.5,84C 859.772,73.3031 879.439,63.4698 899.5,54.5 Z"/></g>
<g><path style="opacity:1" fill="#d2d3d1" d="M 964.5,154.5 C 963.833,153.5 963.167,152.5 962.5,151.5C 962.599,148.327 961.932,145.327 960.5,142.5C 953.564,146.362 946.564,150.028 939.5,153.5C 939.5,152.833 939.167,152.5 938.5,152.5C 945.749,148.539 953.082,144.539 960.5,140.5C 940.714,113.065 921.381,85.3979 902.5,57.5C 901.833,56.1667 900.833,55.1667 899.5,54.5C 879.439,63.4698 859.772,73.3031 840.5,84C 839.207,84.49 837.873,84.6567 836.5,84.5C 856.913,73.1832 877.747,62.5166 899,52.5C 899.833,52.8333 900.667,53.1667 901.5,53.5C 922.497,82.8281 942.997,112.495 963,142.5C 964.156,146.418 964.656,150.418 964.5,154.5 Z"/></g>
<g><path style="opacity:1" fill="#9b9d9a" d="M 899.5,54.5 C 900.833,55.1667 901.833,56.1667 902.5,57.5C 901.861,58.0968 901.528,58.9302 901.5,60C 903.778,68.7226 904.944,77.556 905,86.5C 903.166,75.8192 901.332,65.1525 899.5,54.5 Z"/></g>
<g><path style="opacity:1" fill="#050605" d="M 292.5,126.5 C 291.833,126.5 291.167,126.5 290.5,126.5C 282.16,126.666 273.827,126.5 265.5,126C 264.263,125.768 263.263,125.268 262.5,124.5C 272.513,106.83 282.846,89.1638 293.5,71.5C 294.622,72.6302 295.956,73.2969 297.5,73.5C 296.71,72.2058 295.71,71.0391 294.5,70C 311.743,57.8386 329.076,45.8386 346.5,34C 347.759,33.0181 349.092,32.6848 350.5,33C 334.003,61.5577 317.837,89.7243 302,117.5C 299.321,121.076 296.154,124.076 292.5,126.5 Z"/></g>
<g><path style="opacity:1" fill="#969895" d="M 297.5,73.5 C 299.749,74.0798 301.415,75.4131 302.5,77.5C 300.251,76.9202 298.585,75.5869 297.5,73.5 Z"/></g>
<g><path style="opacity:1" fill="#a4a6a3" d="M 302.5,77.5 C 304.404,77.7376 305.738,78.7376 306.5,80.5C 304.596,80.2624 303.262,79.2624 302.5,77.5 Z"/></g>
<g><path style="opacity:1" fill="#959794" d="M 306.5,80.5 C 308.196,80.6854 309.529,81.5187 310.5,83C 308.588,83.2793 307.254,82.4459 306.5,80.5 Z"/></g>
<g><path style="opacity:1" fill="#79857e" d="M 654.5,83.5 C 648.217,85.3724 641.884,87.0391 635.5,88.5C 640.028,86.5961 644.694,84.7628 649.5,83C 651.387,82.2204 653.054,82.3871 654.5,83.5 Z"/></g>
<g><path style="opacity:1" fill="#dadcd9" d="M 836.5,84.5 C 836.631,85.3764 836.298,86.0431 835.5,86.5C 829.8,89.2269 824.133,91.8935 818.5,94.5C 823.775,90.188 829.775,86.8547 836.5,84.5 Z"/></g>
<g><path style="opacity:1" fill="#969895" d="M 320.5,91.5 C 324.051,93.1108 327.051,95.4442 329.5,98.5C 325.949,96.8892 322.949,94.5558 320.5,91.5 Z"/></g>
<g><path style="opacity:1" fill="#4b5550" d="M 635.5,88.5 C 631.509,90.6059 627.176,91.9392 622.5,92.5C 626.502,90.3902 630.835,89.0569 635.5,88.5 Z"/></g>
<g><path style="opacity:1" fill="#888a87" d="M 905.5,88.5 C 906.887,90.8766 907.721,93.5432 908,96.5C 909.33,103.134 909.997,109.8 910,116.5C 908.049,107.242 906.549,97.9089 905.5,88.5 Z"/></g>
<g><path style="opacity:1" fill="#bdcec9" d="M 672.5,78.5 C 672.44,77.9569 672.107,77.6236 671.5,77.5C 665.711,79.2314 660.044,81.2314 654.5,83.5C 653.054,82.3871 651.387,82.2204 649.5,83C 644.694,84.7628 640.028,86.5961 635.5,88.5C 630.835,89.0569 626.502,90.3902 622.5,92.5C 618.838,92.7234 615.505,93.7234 612.5,95.5C 612.5,96.8333 611.833,97.5 610.5,97.5C 611.463,96.6365 611.463,95.9698 610.5,95.5C 577.355,105.383 544.355,115.55 511.5,126C 513.81,126.497 516.143,126.663 518.5,126.5C 514.018,127.326 509.351,127.826 504.5,128C 502.073,128.902 499.74,129.736 497.5,130.5C 496.209,130.263 495.209,130.596 494.5,131.5C 490.5,132.5 486.5,133.5 482.5,134.5C 482.5,133.5 482.5,132.5 482.5,131.5C 482.5,130.833 482.167,130.5 481.5,130.5C 481.5,129.5 481.5,128.5 481.5,127.5C 481.737,126.209 481.404,125.209 480.5,124.5C 478.723,116.317 479.223,108.317 482,100.5C 483.214,98.9512 484.714,97.7845 486.5,97C 549.061,89.901 611.727,83.2343 674.5,77C 673.956,77.7172 673.289,78.2172 672.5,78.5 Z"/></g>
<g><path style="opacity:1" fill="#27322d" d="M 622.5,92.5 C 619.592,94.6048 616.258,95.6048 612.5,95.5C 615.505,93.7234 618.838,92.7234 622.5,92.5 Z"/></g>
<g><path style="opacity:1" fill="#565855" d="M 329.5,98.5 C 332.84,99.3395 335.507,101.173 337.5,104C 333.381,104.394 330.715,102.561 329.5,98.5 Z"/></g>
<g><path style="opacity:1" fill="#f9faf9" d="M 672.5,78.5 C 671.5,79.8333 670.5,81.1667 669.5,82.5C 658.022,93.1408 646.356,103.641 634.5,114C 633.748,114.671 633.414,115.504 633.5,116.5C 629.229,119.101 625.563,122.434 622.5,126.5C 619.903,126.721 619.903,127.221 622.5,128C 620.743,129.75 618.743,130.916 616.5,131.5C 589.025,158.064 561.358,184.398 533.5,210.5C 532.279,211.028 531.113,211.695 530,212.5C 510.531,190.578 495.364,165.911 484.5,138.5C 490.304,135.899 496.304,133.899 502.5,132.5C 503.473,132.013 504.473,131.513 505.5,131C 502.854,130.503 500.187,130.336 497.5,130.5C 499.74,129.736 502.073,128.902 504.5,128C 509.351,127.826 514.018,127.326 518.5,126.5C 549.285,117.238 579.952,107.572 610.5,97.5C 611.833,97.5 612.5,96.8333 612.5,95.5C 616.258,95.6048 619.592,94.6048 622.5,92.5C 627.176,91.9392 631.509,90.6059 635.5,88.5C 641.884,87.0391 648.217,85.3724 654.5,83.5C 660.044,81.2314 665.711,79.2314 671.5,77.5C 672.107,77.6236 672.44,77.9569 672.5,78.5 Z"/></g>
<g><path style="opacity:1" fill="#9ea09d" d="M 342.5,108.5 C 341.244,108.539 340.244,108.039 339.5,107C 340.998,106.415 341.998,106.915 342.5,108.5 Z"/></g>
<g><path style="opacity:1" fill="#131816" d="M 610.5,97.5 C 579.952,107.572 549.285,117.238 518.5,126.5C 516.143,126.663 513.81,126.497 511.5,126C 544.355,115.55 577.355,105.383 610.5,95.5C 611.463,95.9698 611.463,96.6365 610.5,97.5 Z"/></g>
<g><path style="opacity:1" fill="#192725" d="M 143.5,104.5 C 142.868,108.431 141.201,111.765 138.5,114.5C 139.132,110.569 140.799,107.235 143.5,104.5 Z"/></g>
<g><path style="opacity:1" fill="#919390" d="M 442.5,108.5 C 442.027,109.906 441.027,110.573 439.5,110.5C 439.973,109.094 440.973,108.427 442.5,108.5 Z"/></g>
<g><path style="opacity:1" fill="#8b8d8a" d="M 342.5,108.5 C 345.792,110.458 348.792,112.791 351.5,115.5C 347.637,114.306 344.637,111.973 342.5,108.5 Z"/></g>
<g><path style="opacity:1" fill="#d8dad7" d="M 818.5,94.5 C 810.338,99.2607 802.004,104.094 793.5,109C 796.981,114.643 800.648,120.143 804.5,125.5C 801.654,127.634 798.654,127.967 795.5,126.5C 797.857,126.663 800.19,126.497 802.5,126C 799.625,121.804 796.792,117.638 794,113.5C 793.253,116.924 793.42,120.257 794.5,123.5C 794.167,123.5 793.833,123.5 793.5,123.5C 793.167,123.5 792.833,123.5 792.5,123.5C 792.052,118.116 791.552,112.783 791,107.5C 798.976,103.431 806.809,99.2644 814.5,95C 815.793,94.51 817.127,94.3433 818.5,94.5 Z"/></g>
<g><path style="opacity:1" fill="#818380" d="M 439.5,110.5 C 436.725,113.605 433.392,115.938 429.5,117.5C 432.275,114.395 435.608,112.062 439.5,110.5 Z"/></g>
<g><path style="opacity:1" fill="#8f918e" d="M 351.5,115.5 C 353.255,116.072 354.922,116.906 356.5,118C 358.007,118.837 358.507,120.004 358,121.5C 355.665,119.6 353.498,117.6 351.5,115.5 Z"/></g>
<g><path style="opacity:1" fill="#090b09" d="M 436.5,125.5 C 430.582,126.621 424.582,126.788 418.5,126C 419.381,125.292 420.047,124.458 420.5,123.5C 424.025,122.241 427.025,120.241 429.5,117.5C 433.392,115.938 436.725,113.605 439.5,110.5C 441.027,110.573 442.027,109.906 442.5,108.5C 444.144,107.634 445.811,107.134 447.5,107C 443.575,113.074 439.908,119.24 436.5,125.5 Z"/></g>
<g><path style="opacity:1" fill="#212f2c" d="M 138.5,114.5 C 137.895,119.032 136.228,123.032 133.5,126.5C 133.062,126.565 132.728,126.399 132.5,126C 133.796,123.239 134.963,120.405 136,117.5C 136.377,116.058 137.21,115.058 138.5,114.5 Z"/></g>
<g><path style="opacity:1" fill="#8d8f8c" d="M 429.5,117.5 C 427.025,120.241 424.025,122.241 420.5,123.5C 422.975,120.759 425.975,118.759 429.5,117.5 Z"/></g>
<g><path style="opacity:1" fill="#90928f" d="M 912.5,123.5 C 912.167,123.5 911.833,123.5 911.5,123.5C 910.378,121.712 910.211,119.712 911,117.5C 911.505,119.518 912.005,121.518 912.5,123.5 Z"/></g>
<g><path style="opacity:1" fill="#839994" d="M 261.5,123.5 C 261.5,124.167 261.833,124.5 262.5,124.5C 263.263,125.268 264.263,125.768 265.5,126C 273.827,126.5 282.16,126.666 290.5,126.5C 283.011,127.329 275.344,127.829 267.5,128C 265.158,129.392 265.158,130.225 267.5,130.5C 267.158,131.338 266.492,131.672 265.5,131.5C 261.172,133.347 257.505,136.181 254.5,140C 254.728,140.399 255.062,140.565 255.5,140.5C 255.167,141.5 254.5,142.167 253.5,142.5C 253.103,141.475 252.437,141.308 251.5,142C 244.946,148.189 238.112,154.022 231,159.5C 221.296,150.696 211.796,141.53 202.5,132C 201.251,131.26 200.251,131.427 199.5,132.5C 198.308,131.434 198.641,130.601 200.5,130C 198.743,128.25 196.743,127.084 194.5,126.5C 194.938,126.565 195.272,126.399 195.5,126C 181.99,113.652 169.324,101.152 157.5,88.5C 191.949,100.983 226.616,112.65 261.5,123.5 Z"/></g>
<g><path style="opacity:1" fill="#10120f" d="M 299.5,122.5 C 301.595,123.412 303.595,124.579 305.5,126C 302.167,126.667 298.833,126.667 295.5,126C 297.093,125.051 298.426,123.885 299.5,122.5 Z"/></g>
<g><path style="opacity:1" fill="#121412" d="M 795.5,126.5 C 794.596,125.791 794.263,124.791 794.5,123.5C 793.42,120.257 793.253,116.924 794,113.5C 796.792,117.638 799.625,121.804 802.5,126C 800.19,126.497 797.857,126.663 795.5,126.5 Z"/></g>
<g><path style="opacity:1" fill="#131b18" d="M 633.5,116.5 C 630.437,120.566 626.771,123.899 622.5,126.5C 625.563,122.434 629.229,119.101 633.5,116.5 Z"/></g>
<g><path style="opacity:1" fill="#fcfdfd" d="M 436.5,125.5 C 436.833,125.5 437.167,125.5 437.5,125.5C 451.795,127.483 466.462,128.15 481.5,127.5C 481.5,128.5 481.5,129.5 481.5,130.5C 411.167,130.5 340.833,130.5 270.5,130.5C 269.652,129.375 268.652,129.375 267.5,130.5C 265.158,130.225 265.158,129.392 267.5,128C 275.344,127.829 283.011,127.329 290.5,126.5C 291.167,126.5 291.833,126.5 292.5,126.5C 297.5,127.833 302.5,127.833 307.5,126.5C 307.833,126.5 308.167,126.5 308.5,126.5C 327.5,127.833 346.5,127.833 365.5,126.5C 365.833,126.5 366.167,126.5 366.5,126.5C 377.995,127.167 389.662,127.5 401.5,127.5C 413.52,127.499 425.186,126.832 436.5,125.5 Z"/></g>
<g><path style="opacity:1" fill="#838582" d="M 365.5,126.5 C 346.5,127.833 327.5,127.833 308.5,126.5C 327.806,126.477 346.806,126.477 365.5,126.5 Z"/></g>
<g><path style="opacity:1" fill="#838582" d="M 420.5,123.5 C 420.047,124.458 419.381,125.292 418.5,126C 424.582,126.788 430.582,126.621 436.5,125.5C 425.186,126.832 413.52,127.499 401.5,127.5C 389.662,127.5 377.995,127.167 366.5,126.5C 382.837,126.667 399.17,126.5 415.5,126C 417.078,124.906 418.745,124.072 420.5,123.5 Z"/></g>
<g><path style="opacity:1" fill="#7d807d" d="M 480.5,124.5 C 481.404,125.209 481.737,126.209 481.5,127.5C 466.462,128.15 451.795,127.483 437.5,125.5C 437.833,125.5 438.167,125.5 438.5,125.5C 445.325,126.166 452.325,126.5 459.5,126.5C 466.867,126.497 473.867,125.83 480.5,124.5 Z"/></g>
<g><path style="opacity:1" fill="#fafbfa" d="M 748.5,126.5 C 763.324,127.496 778.324,127.829 793.5,127.5C 793.5,126.167 793.5,124.833 793.5,123.5C 793.833,123.5 794.167,123.5 794.5,123.5C 794.263,124.791 794.596,125.791 795.5,126.5C 798.654,127.967 801.654,127.634 804.5,125.5C 839.996,126.498 875.663,126.832 911.5,126.5C 911.5,125.5 911.5,124.5 911.5,123.5C 911.833,123.5 912.167,123.5 912.5,123.5C 912.5,124.5 912.5,125.5 912.5,126.5C 920.5,126.5 928.5,126.5 936.5,126.5C 935.864,135.565 936.53,144.231 938.5,152.5C 939.167,152.5 939.5,152.833 939.5,153.5C 937.62,154.078 936.62,155.412 936.5,157.5C 936.964,160.417 937.964,163.084 939.5,165.5C 938.542,165.047 937.708,164.381 937,163.5C 936.333,186.833 936.333,210.167 937,233.5C 937.671,232.748 938.504,232.414 939.5,232.5C 939.5,232.833 939.5,233.167 939.5,233.5C 938.542,233.953 937.708,234.619 937,235.5C 936.167,265.172 936.333,294.839 937.5,324.5C 942.266,321.368 947.099,318.368 952,315.5C 965.562,322.031 979.062,328.697 992.5,335.5C 994.182,350.459 995.516,365.459 996.5,380.5C 984.162,390.096 971.329,399.096 958,407.5C 950.798,404.815 943.965,401.482 937.5,397.5C 936.5,623.832 936.167,850.166 936.5,1076.5C 935.041,1076.43 933.708,1076.77 932.5,1077.5C 932.5,849.833 932.5,622.167 932.5,394.5C 927.054,392.862 921.887,390.528 917,387.5C 915.275,371.862 914.275,356.195 914,340.5C 919.971,336.695 925.804,332.695 931.5,328.5C 932.5,262.503 932.833,196.503 932.5,130.5C 871.167,130.5 809.833,130.5 748.5,130.5C 748.664,133.187 748.497,135.854 748,138.5C 740.983,143.173 733.983,147.839 727,152.5C 719.439,148.969 711.939,145.303 704.5,141.5C 703.534,139.604 703.201,137.604 703.5,135.5C 703.5,133.833 703.5,132.167 703.5,130.5C 681.5,130.5 659.5,130.5 637.5,130.5C 637.414,129.504 637.748,128.671 638.5,128C 660.004,127.832 681.337,127.332 702.5,126.5C 702.334,122.486 702.501,118.486 703,114.5C 709.587,110.123 716.087,105.623 722.5,101C 723.5,100.333 724.5,100.333 725.5,101C 732.471,105.319 739.804,108.819 747.5,111.5C 747.179,116.695 747.513,121.695 748.5,126.5 Z"/></g>
<g><path style="opacity:1" fill="#7d7e7c" d="M 792.5,123.5 C 792.833,123.5 793.167,123.5 793.5,123.5C 793.5,124.833 793.5,126.167 793.5,127.5C 778.324,127.829 763.324,127.496 748.5,126.5C 763.167,126.5 777.833,126.5 792.5,126.5C 792.5,125.5 792.5,124.5 792.5,123.5 Z"/></g>
<g><path style="opacity:1" fill="#626362" d="M 270.5,130.5 C 340.833,130.5 411.167,130.5 481.5,130.5C 482.167,130.5 482.5,130.833 482.5,131.5C 411.825,130.837 341.492,131.503 271.5,133.5C 270.596,132.791 270.263,131.791 270.5,130.5 Z"/></g>
<g><path style="opacity:1" fill="#616564" d="M 494.5,131.5 C 495.209,130.596 496.209,130.263 497.5,130.5C 500.187,130.336 502.854,130.503 505.5,131C 504.473,131.513 503.473,132.013 502.5,132.5C 500.052,131.527 497.385,131.194 494.5,131.5 Z"/></g>
<g><path style="opacity:1" fill="#606160" d="M 635.5,131.5 C 635.842,130.662 636.508,130.328 637.5,130.5C 659.5,130.5 681.5,130.5 703.5,130.5C 703.5,132.167 703.5,133.833 703.5,135.5C 702.566,134.432 702.232,133.099 702.5,131.5C 680.167,131.5 657.833,131.5 635.5,131.5 Z"/></g>
<g><path style="opacity:1" fill="#000000" d="M 932.5,1077.5 C 932.607,1079.9 931.607,1081.74 929.5,1083C 914.055,1096.04 898.888,1109.54 884,1123.5C 874.526,1146.1 865.36,1168.76 856.5,1191.5C 852.149,1199.86 848.649,1208.53 846,1217.5C 875.275,1234.31 904.108,1251.65 932.5,1269.5C 932.5,1335.17 932.5,1400.83 932.5,1466.5C 913.833,1466.5 895.167,1466.5 876.5,1466.5C 876.379,1446.47 875.546,1426.47 874,1406.5C 873.798,1404.74 873.298,1403.08 872.5,1401.5C 871.583,1402.13 870.583,1402.46 869.5,1402.5C 870.141,1401.52 870.807,1400.52 871.5,1399.5C 840.402,1383.2 808.902,1367.53 777,1352.5C 753.025,1367.65 729.192,1382.98 705.5,1398.5C 704.512,1399.8 703.512,1401.13 702.5,1402.5C 687.587,1423.33 672.92,1444.33 658.5,1465.5C 602.572,1466.5 546.572,1466.83 490.5,1466.5C 489.823,1454.17 488.657,1441.83 487,1429.5C 468.919,1441.79 450.753,1453.96 432.5,1466C 332.501,1466.5 232.501,1466.67 132.5,1466.5C 132.5,1456.83 132.5,1447.17 132.5,1437.5C 136.381,1436.23 140.048,1434.39 143.5,1432C 156.333,1423.17 169.167,1414.33 182,1405.5C 181.92,1385.48 181.087,1365.48 179.5,1345.5C 163.956,1338.73 148.623,1331.4 133.5,1323.5C 132.5,1079.83 132.167,836.168 132.5,592.5C 136.313,591.84 139.979,590.674 143.5,589C 155.714,583.722 167.714,578.222 179.5,572.5C 164.09,560.712 148.59,549.045 133,537.5C 132.5,461.834 132.333,386.167 132.5,310.5C 132.369,309.761 132.536,309.094 133,308.5C 154.927,317.935 177.427,325.435 200.5,331C 230.391,305.265 260.058,279.432 289.5,253.5C 290.404,252.791 290.737,251.791 290.5,250.5C 292.225,250.157 292.725,249.157 292,247.5C 289.228,243.612 286.728,239.612 284.5,235.5C 287.136,238.31 289.636,241.31 292,244.5C 292.667,241.833 292.667,239.167 292,236.5C 284.922,202.206 278.089,167.872 271.5,133.5C 341.492,131.503 411.825,130.837 482.5,131.5C 482.5,132.5 482.5,133.5 482.5,134.5C 486.5,133.5 490.5,132.5 494.5,131.5C 497.385,131.194 500.052,131.527 502.5,132.5C 496.304,133.899 490.304,135.899 484.5,138.5C 495.364,165.911 510.531,190.578 530,212.5C 531.113,211.695 532.279,211.028 533.5,210.5C 534.404,211.209 534.737,212.209 534.5,213.5C 532.915,214.002 532.415,215.002 533,216.5C 538.877,223.516 546.043,228.682 554.5,232C 558.225,232.76 561.892,232.593 565.5,231.5C 588.351,197.788 611.684,164.454 635.5,131.5C 657.833,131.5 680.167,131.5 702.5,131.5C 702.232,133.099 702.566,134.432 703.5,135.5C 703.201,137.604 703.534,139.604 704.5,141.5C 711.939,145.303 719.439,148.969 727,152.5C 733.983,147.839 740.983,143.173 748,138.5C 748.497,135.854 748.664,133.187 748.5,130.5C 809.833,130.5 871.167,130.5 932.5,130.5C 932.833,196.503 932.5,262.503 931.5,328.5C 925.804,332.695 919.971,336.695 914,340.5C 914.275,356.195 915.275,371.862 917,387.5C 921.887,390.528 927.054,392.862 932.5,394.5C 932.5,622.167 932.5,849.833 932.5,1077.5 Z"/></g>
<g><path style="opacity:1" fill="#182520" d="M 265.5,131.5 C 262.208,134.49 258.874,137.49 255.5,140.5C 255.062,140.565 254.728,140.399 254.5,140C 257.505,136.181 261.172,133.347 265.5,131.5 Z"/></g>
<g><path style="opacity:1" fill="#050705" d="M 962.5,151.5 C 962.808,155.36 963.475,159.026 964.5,162.5C 966.702,178.578 969.368,194.578 972.5,210.5C 971.046,208.563 969.379,206.897 967.5,205.5C 967.573,203.973 966.906,202.973 965.5,202.5C 965.262,200.596 964.262,199.262 962.5,198.5C 962.155,195.802 960.822,193.802 958.5,192.5C 957.565,190.139 956.232,187.972 954.5,186C 955.151,184.692 954.485,183.859 952.5,183.5C 951.876,181.246 950.543,179.579 948.5,178.5C 948.573,176.973 947.906,175.973 946.5,175.5C 946.573,173.973 945.906,172.973 944.5,172.5C 944.262,170.596 943.262,169.262 941.5,168.5C 941.573,166.973 940.906,165.973 939.5,165.5C 937.964,163.084 936.964,160.417 936.5,157.5C 936.62,155.412 937.62,154.078 939.5,153.5C 946.564,150.028 953.564,146.362 960.5,142.5C 961.932,145.327 962.599,148.327 962.5,151.5 Z"/></g>
<g><path style="opacity:1" fill="#474946" d="M 962.5,151.5 C 963.167,152.5 963.833,153.5 964.5,154.5C 966.026,155.105 967.026,156.271 967.5,158C 966.62,159.356 966.286,160.856 966.5,162.5C 965.686,160.369 965.186,158.036 965,155.5C 964.503,157.81 964.337,160.143 964.5,162.5C 963.475,159.026 962.808,155.36 962.5,151.5 Z"/></g>
<g><path style="opacity:1" fill="#bdcdca" d="M 194.5,126.5 C 196.743,127.084 198.743,128.25 200.5,130C 198.641,130.601 198.308,131.434 199.5,132.5C 209.5,142.167 219.5,151.833 229.5,161.5C 222.899,163.15 216.232,164.483 209.5,165.5C 206.482,165.335 203.482,165.502 200.5,166C 177.881,170.824 155.215,175.324 132.5,179.5C 131.153,180.171 129.986,180.171 129,179.5C 128.536,180.094 128.369,180.761 128.5,181.5C 122.419,181.514 116.419,182.181 110.5,183.5C 115.705,170.084 121.205,156.751 127,143.5C 127.977,141.26 128.477,138.927 128.5,136.5C 129.127,132.58 130.793,129.247 133.5,126.5C 136.228,123.032 137.895,119.032 138.5,114.5C 141.201,111.765 142.868,108.431 143.5,104.5C 145.725,100.377 147.725,96.0437 149.5,91.5C 149.376,90.8933 149.043,90.56 148.5,90.5C 149.515,88.953 150.849,88.1197 152.5,88C 166.116,101.458 180.116,114.292 194.5,126.5 Z"/></g>
<g><path style="opacity:1" fill="#151d1a" d="M 199.5,132.5 C 200.251,131.427 201.251,131.26 202.5,132C 211.796,141.53 221.296,150.696 231,159.5C 238.112,154.022 244.946,148.189 251.5,142C 252.437,141.308 253.103,141.475 253.5,142.5C 246.195,148.47 239.195,154.803 232.5,161.5C 235.189,165.848 237.856,170.181 240.5,174.5C 236.596,170.352 232.929,166.019 229.5,161.5C 219.5,151.833 209.5,142.167 199.5,132.5 Z"/></g>
<g><path style="opacity:1" fill="#030402" d="M 939.5,165.5 C 939.427,167.027 940.094,168.027 941.5,168.5C 941.738,170.404 942.738,171.738 944.5,172.5C 944.427,174.027 945.094,175.027 946.5,175.5C 946.427,177.027 947.094,178.027 948.5,178.5C 949.136,180.795 950.469,182.461 952.5,183.5C 953.723,187.049 955.723,190.049 958.5,192.5C 959.34,194.853 960.674,196.853 962.5,198.5C 962.738,200.404 963.738,201.738 965.5,202.5C 965.427,204.027 966.094,205.027 967.5,205.5C 968.655,208.475 970.322,211.142 972.5,213.5C 972.137,214.183 971.804,214.85 971.5,215.5C 961.902,219.922 952.402,224.589 943,229.5C 941.636,230.371 940.47,231.371 939.5,232.5C 938.504,232.414 937.671,232.748 937,233.5C 936.333,210.167 936.333,186.833 937,163.5C 937.708,164.381 938.542,165.047 939.5,165.5 Z"/></g>
<g><path style="opacity:1" fill="#9f9f9f" d="M 939.5,165.5 C 940.906,165.973 941.573,166.973 941.5,168.5C 940.094,168.027 939.427,167.027 939.5,165.5 Z"/></g>
<g><path style="opacity:1" fill="#839a95" d="M 148.5,90.5 C 149.043,90.56 149.376,90.8933 149.5,91.5C 147.725,96.0437 145.725,100.377 143.5,104.5C 140.799,107.235 139.132,110.569 138.5,114.5C 137.21,115.058 136.377,116.058 136,117.5C 134.963,120.405 133.796,123.239 132.5,126C 132.728,126.399 133.062,126.565 133.5,126.5C 130.793,129.247 129.127,132.58 128.5,136.5C 125.244,143.51 121.577,150.344 117.5,157C 117.957,157.414 118.291,157.914 118.5,158.5C 114.593,166.728 110.593,174.894 106.5,183C 104.833,183.667 103.167,183.667 101.5,183C 93.2672,180.027 84.9339,177.527 76.5,175.5C 70.4239,174.197 64.5906,172.197 59,169.5C 58.6012,169.728 58.4346,170.062 58.5,170.5C 57.475,170.103 57.3083,169.437 58,168.5C 87.1151,143.353 115.948,117.853 144.5,92C 145.901,91.5899 147.234,91.0899 148.5,90.5 Z"/></g>
<g><path style="opacity:1" fill="#8f908f" d="M 941.5,168.5 C 943.262,169.262 944.262,170.596 944.5,172.5C 942.738,171.738 941.738,170.404 941.5,168.5 Z"/></g>
<g><path style="opacity:1" fill="#9a9c99" d="M 944.5,172.5 C 945.906,172.973 946.573,173.973 946.5,175.5C 945.094,175.027 944.427,174.027 944.5,172.5 Z"/></g>
<g><path style="opacity:1" fill="#0c130f" d="M 209.5,165.5 C 202.419,167.768 195.085,169.435 187.5,170.5C 169.171,174.499 150.838,178.499 132.5,182.5C 132.5,181.5 132.5,180.5 132.5,179.5C 155.215,175.324 177.881,170.824 200.5,166C 203.482,165.502 206.482,165.335 209.5,165.5 Z"/></g>
<g><path style="opacity:1" fill="#a4a6a3" d="M 946.5,175.5 C 947.906,175.973 948.573,176.973 948.5,178.5C 947.094,178.027 946.427,177.027 946.5,175.5 Z"/></g>
<g><path style="opacity:1" fill="#8f918e" d="M 948.5,178.5 C 950.543,179.579 951.876,181.246 952.5,183.5C 950.469,182.461 949.136,180.795 948.5,178.5 Z"/></g>
<g><path style="opacity:1" fill="#212e2c" d="M 240.5,174.5 C 241.794,175.29 242.961,176.29 244,177.5C 247.688,182.218 250.855,187.218 253.5,192.5C 248.399,187.064 244.066,181.064 240.5,174.5 Z"/></g>
<g><path style="opacity:1" fill="#111614" d="M 128.5,136.5 C 128.477,138.927 127.977,141.26 127,143.5C 121.205,156.751 115.705,170.084 110.5,183.5C 116.419,182.181 122.419,181.514 128.5,181.5C 128.53,182.497 128.03,183.164 127,183.5C 121.447,184.644 115.947,185.977 110.5,187.5C 116.522,194.354 122.355,201.354 128,208.5C 128.765,210.066 128.598,211.399 127.5,212.5C 121.198,205.308 114.698,197.641 108,189.5C 99.6777,218.978 91.8443,248.645 84.5,278.5C 83.8761,278.083 83.5427,277.416 83.5,276.5C 90.8044,247.127 97.8044,217.96 104.5,189C 104.415,187.893 104.081,186.893 103.5,186C 94.215,182.966 85.215,179.466 76.5,175.5C 84.9339,177.527 93.2672,180.027 101.5,183C 103.167,183.667 104.833,183.667 106.5,183C 110.593,174.894 114.593,166.728 118.5,158.5C 118.291,157.914 117.957,157.414 117.5,157C 121.577,150.344 125.244,143.51 128.5,136.5 Z"/></g>
<g><path style="opacity:1" fill="#839995" d="M 669.5,82.5 C 659.33,96.8445 649.33,111.344 639.5,126C 660.497,126.5 681.497,126.667 702.5,126.5C 681.337,127.332 660.004,127.832 638.5,128C 637.748,128.671 637.414,129.504 637.5,130.5C 636.508,130.328 635.842,130.662 635.5,131.5C 611.684,164.454 588.351,197.788 565.5,231.5C 561.892,232.593 558.225,232.76 554.5,232C 546.043,228.682 538.877,223.516 533,216.5C 532.415,215.002 532.915,214.002 534.5,213.5C 562.578,186.591 590.578,159.425 618.5,132C 617.906,131.536 617.239,131.369 616.5,131.5C 618.743,130.916 620.743,129.75 622.5,128C 619.903,127.221 619.903,126.721 622.5,126.5C 626.771,123.899 630.437,120.566 633.5,116.5C 633.414,115.504 633.748,114.671 634.5,114C 646.356,103.641 658.022,93.1408 669.5,82.5 Z"/></g>
<g><path style="opacity:1" fill="#828481" d="M 952.5,183.5 C 954.485,183.859 955.151,184.692 954.5,186C 956.232,187.972 957.565,190.139 958.5,192.5C 955.723,190.049 953.723,187.049 952.5,183.5 Z"/></g>
<g><path style="opacity:1" fill="#0f1312" d="M 616.5,131.5 C 617.239,131.369 617.906,131.536 618.5,132C 590.578,159.425 562.578,186.591 534.5,213.5C 534.737,212.209 534.404,211.209 533.5,210.5C 561.358,184.398 589.025,158.064 616.5,131.5 Z"/></g>
<g><path style="opacity:1" fill="#bfcfcb" d="M 229.5,161.5 C 232.929,166.019 236.596,170.352 240.5,174.5C 244.066,181.064 248.399,187.064 253.5,192.5C 257.062,198.613 260.896,204.613 265,210.5C 266.719,213.288 268.885,215.621 271.5,217.5C 272.273,220.516 273.939,222.85 276.5,224.5C 276.738,226.404 277.738,227.738 279.5,228.5C 279.67,229.822 279.337,230.989 278.5,232C 282.915,232.823 283.248,233.99 279.5,235.5C 281.095,236.434 282.761,236.434 284.5,235.5C 286.728,239.612 289.228,243.612 292,247.5C 292.725,249.157 292.225,250.157 290.5,250.5C 254.351,261.724 218.018,272.058 181.5,281.5C 182.828,280.493 183.828,279.16 184.5,277.5C 183.047,275.815 181.714,274.149 180.5,272.5C 181.397,273.598 182.23,273.598 183,272.5C 183.308,273.308 183.808,273.975 184.5,274.5C 185.167,273.5 185.833,272.5 186.5,271.5C 187.824,273.446 189.49,273.446 191.5,271.5C 191.351,272.552 191.517,273.552 192,274.5C 192.741,270.815 194.241,270.149 196.5,272.5C 196.833,272.167 197.167,271.833 197.5,271.5C 196.737,270.281 195.737,269.281 194.5,268.5C 195.603,268.002 196.603,267.669 197.5,267.5C 196.493,264.73 196.493,262.396 197.5,260.5C 207.693,231.254 217.693,201.92 227.5,172.5C 227.376,171.893 227.043,171.56 226.5,171.5C 227.001,168.845 228.334,166.678 230.5,165C 229.663,163.989 229.33,162.822 229.5,161.5 Z"/></g>
<g><path style="opacity:1" fill="#bececa" d="M 76.5,175.5 C 85.215,179.466 94.215,182.966 103.5,186C 104.081,186.893 104.415,187.893 104.5,189C 97.8044,217.96 90.8044,247.127 83.5,276.5C 83.5427,277.416 83.8761,278.083 84.5,278.5C 83.6693,281.659 82.6693,284.659 81.5,287.5C 74.2197,251.604 66.7197,215.604 59,179.5C 58.502,176.518 58.3354,173.518 58.5,170.5C 58.4346,170.062 58.6012,169.728 59,169.5C 64.5906,172.197 70.4239,174.197 76.5,175.5 Z"/></g>
<g><path style="opacity:1" fill="#f7f8f7" d="M 229.5,161.5 C 229.33,162.822 229.663,163.989 230.5,165C 228.334,166.678 227.001,168.845 226.5,171.5C 215.704,200.888 205.704,230.555 196.5,260.5C 194.64,264.083 192.973,267.749 191.5,271.5C 189.49,273.446 187.824,273.446 186.5,271.5C 185.833,272.5 185.167,273.5 184.5,274.5C 183.808,273.975 183.308,273.308 183,272.5C 182.23,273.598 181.397,273.598 180.5,272.5C 181.714,274.149 183.047,275.815 184.5,277.5C 183.828,279.16 182.828,280.493 181.5,281.5C 165.158,282.834 148.825,284.168 132.5,285.5C 132.5,286.5 132.5,287.5 132.5,288.5C 149.316,286.789 166.149,285.122 183,283.5C 184.833,283.833 186.667,284.167 188.5,284.5C 190.141,292.203 191.974,299.869 194,307.5C 194.667,304.833 194.667,302.167 194,299.5C 191.786,293.736 190.953,287.903 191.5,282C 224.162,272.501 256.829,263.001 289.5,253.5C 260.058,279.432 230.391,305.265 200.5,331C 177.427,325.435 154.927,317.935 133,308.5C 132.536,309.094 132.369,309.761 132.5,310.5C 131.883,310.611 131.383,310.944 131,311.5C 130.667,314.167 130.333,316.833 130,319.5C 129.817,316.635 129.317,313.969 128.5,311.5C 128.5,310.167 128.5,308.833 128.5,307.5C 114.56,303.354 100.893,298.52 87.5,293C 100.444,291.344 113.444,290.011 126.5,289C 129.23,287.768 129.063,286.935 126,286.5C 111.203,288.266 96.37,289.6 81.5,290.5C 81.5,289.5 81.5,288.5 81.5,287.5C 82.6693,284.659 83.6693,281.659 84.5,278.5C 91.8443,248.645 99.6777,218.978 108,189.5C 114.698,197.641 121.198,205.308 127.5,212.5C 127.953,213.458 128.619,214.292 129.5,215C 128.366,216.016 128.699,216.683 130.5,217C 130.167,218 129.833,219 129.5,220C 130.167,220.333 130.833,220.667 131.5,221C 130.483,222.049 130.316,223.216 131,224.5C 131.333,223.833 131.667,223.167 132,222.5C 133.451,222.736 134.951,222.736 136.5,222.5C 141.67,227.837 146.67,233.337 151.5,239C 154.326,243.008 157.992,246.842 162.5,250.5C 158.239,244.233 153.573,238.233 148.5,232.5C 148.187,230.979 148.687,229.312 150,227.5C 150.333,228.5 150.667,229.5 151,230.5C 152.217,229.614 153.551,228.614 155,227.5C 158.291,229.024 158.125,230.357 154.5,231.5C 154.846,232.696 155.346,232.696 156,231.5C 158.195,234.037 161.028,235.037 164.5,234.5C 164.5,233.5 164.5,232.5 164.5,231.5C 163.022,231.762 161.689,231.429 160.5,230.5C 163.746,229.657 167.413,228.99 171.5,228.5C 171.5,227.5 171.5,226.5 171.5,225.5C 173.861,225.674 176.194,226.007 178.5,226.5C 178.343,227.873 178.51,229.207 179,230.5C 179.9,229.23 181.066,228.23 182.5,227.5C 180.874,226.01 179.208,224.51 177.5,223C 179.243,221.365 181.077,221.198 183,222.5C 184.729,220.723 186.895,220.556 189.5,222C 185.37,225.067 184.537,228.9 187,233.5C 187.692,232.975 188.192,232.308 188.5,231.5C 187.167,229.833 187.167,228.167 188.5,226.5C 190.048,226.788 191.715,226.788 193.5,226.5C 192.024,225.12 191.024,223.453 190.5,221.5C 191.934,219.78 192.767,217.78 193,215.5C 193.333,216.833 193.667,218.167 194,219.5C 194.202,217.744 194.702,216.078 195.5,214.5C 196.451,215.326 197.451,215.492 198.5,215C 198.167,214.667 197.833,214.333 197.5,214C 198.808,211.205 200.474,208.705 202.5,206.5C 201.205,203.284 200.538,199.951 200.5,196.5C 202.806,196.007 205.139,195.674 207.5,195.5C 207.5,194.5 207.5,193.5 207.5,192.5C 205.234,192.141 203.401,192.808 202,194.5C 201.405,193.101 201.572,191.768 202.5,190.5C 201.5,188.833 200.167,187.5 198.5,186.5C 197.94,184.146 197.273,181.813 196.5,179.5C 194.825,184.633 196.158,188.8 200.5,192C 197.69,191.088 195.023,191.588 192.5,193.5C 191.494,193.062 191.494,192.396 192.5,191.5C 188.184,188.676 186.684,190.009 188,195.5C 188.667,194.833 189.333,194.167 190,193.5C 193.792,197.242 193.292,200.242 188.5,202.5C 187.811,204.444 187.311,206.444 187,208.5C 184.301,208.336 181.468,208.17 178.5,208C 184.146,207.11 184.479,206.11 179.5,205C 182.541,204.424 185.208,203.258 187.5,201.5C 186.833,201.167 186.167,200.833 185.5,200.5C 182.525,201.139 179.525,201.639 176.5,202C 178.405,202.826 178.739,203.993 177.5,205.5C 176.833,204.833 176.167,204.167 175.5,203.5C 174.289,204.274 174.289,205.107 175.5,206C 174.975,206.692 174.308,207.192 173.5,207.5C 174.017,205.981 173.35,204.648 171.5,203.5C 172.364,201.803 173.697,200.637 175.5,200C 173.315,198.071 171.649,198.571 170.5,201.5C 168.022,199.829 166.522,197.496 166,194.5C 164.989,195.337 163.822,195.67 162.5,195.5C 162.649,196.552 162.483,197.552 162,198.5C 161.599,196.479 160.432,195.145 158.5,194.5C 156.96,196.437 154.96,197.604 152.5,198C 153.451,198.718 153.617,199.551 153,200.5C 152.282,199.549 151.449,199.383 150.5,200C 148.037,201.793 147.37,203.959 148.5,206.5C 149.278,207.156 149.944,207.989 150.5,209C 150.167,209.5 149.833,210 149.5,210.5C 148.856,208.157 146.856,207.157 143.5,207.5C 143.36,205.876 144.027,204.71 145.5,204C 144.833,203.667 144.167,203.333 143.5,203C 145.146,201.445 145.479,199.779 144.5,198C 146.225,198.409 147.892,198.242 149.5,197.5C 147.083,196.928 144.916,195.928 143,194.5C 142.437,193.275 142.77,192.275 144,191.5C 144.483,192.448 144.649,193.448 144.5,194.5C 146.124,194.64 147.29,193.973 148,192.5C 149.987,193.218 151.821,194.218 153.5,195.5C 154.452,194.467 154.452,193.3 153.5,192C 153.905,191.055 154.572,190.388 155.5,190C 155.167,189.667 154.833,189.333 154.5,189C 156.676,188.837 158.509,188.004 160,186.5C 160.779,187.728 161.779,188.728 163,189.5C 164.811,188.576 164.645,187.743 162.5,187C 162.957,186.586 163.291,186.086 163.5,185.5C 162.092,184.757 160.759,183.923 159.5,183C 160.938,182.781 162.271,182.281 163.5,181.5C 162.418,181.251 161.085,181.085 159.5,181C 161.911,178.302 164.577,177.968 167.5,180C 165.993,180.837 165.493,182.004 166,183.5C 169.941,179.856 170.441,180.689 167.5,186C 168.191,187.067 168.691,188.234 169,189.5C 169.743,187.355 170.576,187.189 171.5,189C 169.799,190.86 168.799,193.027 168.5,195.5C 170.5,195.833 172.5,196.167 174.5,196.5C 174.5,195.5 174.5,194.5 174.5,193.5C 173.127,193.657 171.793,193.49 170.5,193C 173.569,191.927 176.403,190.427 179,188.5C 180.365,188.844 181.532,189.511 182.5,190.5C 184.816,188.506 187.482,187.506 190.5,187.5C 190.529,184.227 189.196,183.56 186.5,185.5C 185.353,185.182 184.519,184.516 184,183.5C 182.035,184.885 180.202,184.718 178.5,183C 180.838,181.492 181.838,179.325 181.5,176.5C 184.05,176.439 185.55,175.106 186,172.5C 186.333,172.833 186.667,173.167 187,173.5C 187.483,172.552 187.649,171.552 187.5,170.5C 195.085,169.435 202.419,167.768 209.5,165.5C 216.232,164.483 222.899,163.15 229.5,161.5 Z"/></g>
<g><path style="opacity:1" fill="#939592" d="M 958.5,192.5 C 960.822,193.802 962.155,195.802 962.5,198.5C 960.674,196.853 959.34,194.853 958.5,192.5 Z"/></g>
<g><path style="opacity:1" fill="#bececa" d="M 270.5,130.5 C 270.263,131.791 270.596,132.791 271.5,133.5C 278.089,167.872 284.922,202.206 292,236.5C 292.667,239.167 292.667,241.833 292,244.5C 289.636,241.31 287.136,238.31 284.5,235.5C 283.214,232.883 281.547,230.55 279.5,228.5C 279.262,226.596 278.262,225.262 276.5,224.5C 275.567,221.63 273.9,219.296 271.5,217.5C 267.021,210.557 262.521,203.557 258,196.5C 256.629,194.959 255.129,193.625 253.5,192.5C 250.855,187.218 247.688,182.218 244,177.5C 242.961,176.29 241.794,175.29 240.5,174.5C 237.856,170.181 235.189,165.848 232.5,161.5C 239.195,154.803 246.195,148.47 253.5,142.5C 254.5,142.167 255.167,141.5 255.5,140.5C 258.874,137.49 262.208,134.49 265.5,131.5C 266.492,131.672 267.158,131.338 267.5,130.5C 268.652,129.375 269.652,129.375 270.5,130.5 Z"/></g>
<g><path style="opacity:1" fill="#949693" d="M 962.5,198.5 C 964.262,199.262 965.262,200.596 965.5,202.5C 963.738,201.738 962.738,200.404 962.5,198.5 Z"/></g>
<g><path style="opacity:1" fill="#999b98" d="M 965.5,202.5 C 966.906,202.973 967.573,203.973 967.5,205.5C 966.094,205.027 965.427,204.027 965.5,202.5 Z"/></g>
<g><path style="opacity:1" fill="#1e2b28" d="M 253.5,192.5 C 255.129,193.625 256.629,194.959 258,196.5C 262.521,203.557 267.021,210.557 271.5,217.5C 268.885,215.621 266.719,213.288 265,210.5C 260.896,204.613 257.062,198.613 253.5,192.5 Z"/></g>
<g><path style="opacity:1" fill="#9a9c99" d="M 967.5,205.5 C 969.379,206.897 971.046,208.563 972.5,210.5C 973.139,211.097 973.472,211.93 973.5,213C 973.316,214.376 972.649,215.209 971.5,215.5C 971.804,214.85 972.137,214.183 972.5,213.5C 970.322,211.142 968.655,208.475 967.5,205.5 Z"/></g>
<g><path style="opacity:1" fill="#eef1ef" d="M 187.5,170.5 C 187.649,171.552 187.483,172.552 187,173.5C 186.667,173.167 186.333,172.833 186,172.5C 185.55,175.106 184.05,176.439 181.5,176.5C 181.838,179.325 180.838,181.492 178.5,183C 180.202,184.718 182.035,184.885 184,183.5C 184.519,184.516 185.353,185.182 186.5,185.5C 189.196,183.56 190.529,184.227 190.5,187.5C 187.482,187.506 184.816,188.506 182.5,190.5C 181.532,189.511 180.365,188.844 179,188.5C 176.403,190.427 173.569,191.927 170.5,193C 171.793,193.49 173.127,193.657 174.5,193.5C 174.5,194.5 174.5,195.5 174.5,196.5C 172.5,196.167 170.5,195.833 168.5,195.5C 168.799,193.027 169.799,190.86 171.5,189C 170.576,187.189 169.743,187.355 169,189.5C 168.691,188.234 168.191,187.067 167.5,186C 170.441,180.689 169.941,179.856 166,183.5C 165.493,182.004 165.993,180.837 167.5,180C 164.577,177.968 161.911,178.302 159.5,181C 161.085,181.085 162.418,181.251 163.5,181.5C 162.271,182.281 160.938,182.781 159.5,183C 160.759,183.923 162.092,184.757 163.5,185.5C 163.291,186.086 162.957,186.586 162.5,187C 164.645,187.743 164.811,188.576 163,189.5C 161.779,188.728 160.779,187.728 160,186.5C 158.509,188.004 156.676,188.837 154.5,189C 154.833,189.333 155.167,189.667 155.5,190C 154.572,190.388 153.905,191.055 153.5,192C 154.452,193.3 154.452,194.467 153.5,195.5C 151.821,194.218 149.987,193.218 148,192.5C 147.29,193.973 146.124,194.64 144.5,194.5C 144.649,193.448 144.483,192.448 144,191.5C 142.77,192.275 142.437,193.275 143,194.5C 144.916,195.928 147.083,196.928 149.5,197.5C 147.892,198.242 146.225,198.409 144.5,198C 145.479,199.779 145.146,201.445 143.5,203C 144.167,203.333 144.833,203.667 145.5,204C 144.027,204.71 143.36,205.876 143.5,207.5C 143.5,208.5 143.5,209.5 143.5,210.5C 139.981,210.187 138.647,211.52 139.5,214.5C 140.086,214.291 140.586,213.957 141,213.5C 141.29,215.044 141.956,216.377 143,217.5C 147.055,216.89 150.221,214.89 152.5,211.5C 153.72,212.711 154.887,212.711 156,211.5C 156.202,213.256 156.702,214.922 157.5,216.5C 157.749,215.418 157.915,214.085 158,212.5C 158.414,212.957 158.914,213.291 159.5,213.5C 160.833,211.5 162.167,209.5 163.5,207.5C 164.931,207.977 166.264,208.643 167.5,209.5C 166.189,210.258 165.689,211.258 166,212.5C 167.205,211.929 168.372,211.262 169.5,210.5C 168.959,208.465 168.292,206.465 167.5,204.5C 163.598,206.42 159.931,208.086 156.5,209.5C 156.331,208.603 155.998,207.603 155.5,206.5C 154.749,207.376 154.249,208.376 154,209.5C 152.736,207.393 150.903,206.393 148.5,206.5C 147.37,203.959 148.037,201.793 150.5,200C 151.449,199.383 152.282,199.549 153,200.5C 153.617,199.551 153.451,198.718 152.5,198C 154.96,197.604 156.96,196.437 158.5,194.5C 160.432,195.145 161.599,196.479 162,198.5C 162.483,197.552 162.649,196.552 162.5,195.5C 163.822,195.67 164.989,195.337 166,194.5C 166.522,197.496 168.022,199.829 170.5,201.5C 171.649,198.571 173.315,198.071 175.5,200C 173.697,200.637 172.364,201.803 171.5,203.5C 173.35,204.648 174.017,205.981 173.5,207.5C 174.308,207.192 174.975,206.692 175.5,206C 174.289,205.107 174.289,204.274 175.5,203.5C 176.167,204.167 176.833,204.833 177.5,205.5C 178.739,203.993 178.405,202.826 176.5,202C 179.525,201.639 182.525,201.139 185.5,200.5C 186.167,200.833 186.833,201.167 187.5,201.5C 185.208,203.258 182.541,204.424 179.5,205C 184.479,206.11 184.146,207.11 178.5,208C 181.468,208.17 184.301,208.336 187,208.5C 187.311,206.444 187.811,204.444 188.5,202.5C 193.292,200.242 193.792,197.242 190,193.5C 189.333,194.167 188.667,194.833 188,195.5C 186.684,190.009 188.184,188.676 192.5,191.5C 191.494,192.396 191.494,193.062 192.5,193.5C 195.023,191.588 197.69,191.088 200.5,192C 196.158,188.8 194.825,184.633 196.5,179.5C 197.273,181.813 197.94,184.146 198.5,186.5C 200.167,187.5 201.5,188.833 202.5,190.5C 201.572,191.768 201.405,193.101 202,194.5C 203.401,192.808 205.234,192.141 207.5,192.5C 207.5,193.5 207.5,194.5 207.5,195.5C 205.139,195.674 202.806,196.007 200.5,196.5C 200.538,199.951 201.205,203.284 202.5,206.5C 200.474,208.705 198.808,211.205 197.5,214C 197.833,214.333 198.167,214.667 198.5,215C 197.451,215.492 196.451,215.326 195.5,214.5C 194.702,216.078 194.202,217.744 194,219.5C 193.667,218.167 193.333,216.833 193,215.5C 192.767,217.78 191.934,219.78 190.5,221.5C 191.024,223.453 192.024,225.12 193.5,226.5C 191.715,226.788 190.048,226.788 188.5,226.5C 187.167,228.167 187.167,229.833 188.5,231.5C 188.192,232.308 187.692,232.975 187,233.5C 184.537,228.9 185.37,225.067 189.5,222C 186.895,220.556 184.729,220.723 183,222.5C 181.077,221.198 179.243,221.365 177.5,223C 179.208,224.51 180.874,226.01 182.5,227.5C 181.066,228.23 179.9,229.23 179,230.5C 178.51,229.207 178.343,227.873 178.5,226.5C 176.194,226.007 173.861,225.674 171.5,225.5C 171.5,226.5 171.5,227.5 171.5,228.5C 167.413,228.99 163.746,229.657 160.5,230.5C 161.689,231.429 163.022,231.762 164.5,231.5C 164.5,232.5 164.5,233.5 164.5,234.5C 161.028,235.037 158.195,234.037 156,231.5C 155.346,232.696 154.846,232.696 154.5,231.5C 158.125,230.357 158.291,229.024 155,227.5C 153.551,228.614 152.217,229.614 151,230.5C 150.667,229.5 150.333,228.5 150,227.5C 148.687,229.312 148.187,230.979 148.5,232.5C 142.824,226.987 137.658,220.987 133,214.5C 132.333,215.833 132.333,217.167 133,218.5C 134.376,219.705 135.542,221.038 136.5,222.5C 134.951,222.736 133.451,222.736 132,222.5C 131.667,223.167 131.333,223.833 131,224.5C 130.316,223.216 130.483,222.049 131.5,221C 130.833,220.667 130.167,220.333 129.5,220C 129.833,219 130.167,218 130.5,217C 128.699,216.683 128.366,216.016 129.5,215C 128.619,214.292 127.953,213.458 127.5,212.5C 128.598,211.399 128.765,210.066 128,208.5C 122.355,201.354 116.522,194.354 110.5,187.5C 115.947,185.977 121.447,184.644 127,183.5C 128.03,183.164 128.53,182.497 128.5,181.5C 128.369,180.761 128.536,180.094 129,179.5C 129.986,180.171 131.153,180.171 132.5,179.5C 132.5,180.5 132.5,181.5 132.5,182.5C 150.838,178.499 169.171,174.499 187.5,170.5 Z"/></g>
<g><path style="opacity:1" fill="#d4dad7" d="M 143.5,207.5 C 146.856,207.157 148.856,208.157 149.5,210.5C 149.833,210 150.167,209.5 150.5,209C 149.944,207.989 149.278,207.156 148.5,206.5C 150.903,206.393 152.736,207.393 154,209.5C 154.249,208.376 154.749,207.376 155.5,206.5C 155.998,207.603 156.331,208.603 156.5,209.5C 159.931,208.086 163.598,206.42 167.5,204.5C 168.292,206.465 168.959,208.465 169.5,210.5C 168.372,211.262 167.205,211.929 166,212.5C 165.689,211.258 166.189,210.258 167.5,209.5C 166.264,208.643 164.931,207.977 163.5,207.5C 162.167,209.5 160.833,211.5 159.5,213.5C 158.914,213.291 158.414,212.957 158,212.5C 157.915,214.085 157.749,215.418 157.5,216.5C 156.702,214.922 156.202,213.256 156,211.5C 154.887,212.711 153.72,212.711 152.5,211.5C 150.221,214.89 147.055,216.89 143,217.5C 141.956,216.377 141.29,215.044 141,213.5C 140.586,213.957 140.086,214.291 139.5,214.5C 138.647,211.52 139.981,210.187 143.5,210.5C 143.5,209.5 143.5,208.5 143.5,207.5 Z"/></g>
<g><path style="opacity:1" fill="#121312" d="M 148.5,232.5 C 153.573,238.233 158.239,244.233 162.5,250.5C 157.992,246.842 154.326,243.008 151.5,239C 146.67,233.337 141.67,227.837 136.5,222.5C 135.542,221.038 134.376,219.705 133,218.5C 132.333,217.167 132.333,215.833 133,214.5C 137.658,220.987 142.824,226.987 148.5,232.5 Z"/></g>
<g><path style="opacity:1" fill="#263432" d="M 271.5,217.5 C 273.9,219.296 275.567,221.63 276.5,224.5C 273.939,222.85 272.273,220.516 271.5,217.5 Z"/></g>
<g><path style="opacity:1" fill="#cccdcb" d="M 966.5,162.5 C 969.036,180.25 972.036,197.916 975.5,215.5C 963.697,221.988 951.697,227.988 939.5,233.5C 939.5,233.167 939.5,232.833 939.5,232.5C 940.47,231.371 941.636,230.371 943,229.5C 952.402,224.589 961.902,219.922 971.5,215.5C 972.649,215.209 973.316,214.376 973.5,213C 973.472,211.93 973.139,211.097 972.5,210.5C 969.368,194.578 966.702,178.578 964.5,162.5C 964.337,160.143 964.503,157.81 965,155.5C 965.186,158.036 965.686,160.369 966.5,162.5 Z"/></g>
<g><path style="opacity:1" fill="#1e2b26" d="M 276.5,224.5 C 278.262,225.262 279.262,226.596 279.5,228.5C 277.738,227.738 276.738,226.404 276.5,224.5 Z"/></g>
<g><path style="opacity:1" fill="#50605a" d="M 279.5,228.5 C 281.547,230.55 283.214,232.883 284.5,235.5C 282.761,236.434 281.095,236.434 279.5,235.5C 283.248,233.99 282.915,232.823 278.5,232C 279.337,230.989 279.67,229.822 279.5,228.5 Z"/></g>
<g><path style="opacity:1" fill="#0f1513" d="M 226.5,171.5 C 227.043,171.56 227.376,171.893 227.5,172.5C 217.693,201.92 207.693,231.254 197.5,260.5C 197.167,260.5 196.833,260.5 196.5,260.5C 205.704,230.555 215.704,200.888 226.5,171.5 Z"/></g>
<g><path style="opacity:1" fill="#131413" d="M 162.5,250.5 C 165.882,253.567 169.048,256.901 172,260.5C 173.602,262.369 174.602,264.369 175,266.5C 171.702,262.2 168.035,258.2 164,254.5C 163.209,253.255 162.709,251.922 162.5,250.5 Z"/></g>
<g><path style="opacity:1" fill="#87968f" d="M 196.5,260.5 C 196.833,260.5 197.167,260.5 197.5,260.5C 196.493,262.396 196.493,264.73 197.5,267.5C 196.603,267.669 195.603,268.002 194.5,268.5C 195.737,269.281 196.737,270.281 197.5,271.5C 197.167,271.833 196.833,272.167 196.5,272.5C 194.241,270.149 192.741,270.815 192,274.5C 191.517,273.552 191.351,272.552 191.5,271.5C 192.973,267.749 194.64,264.083 196.5,260.5 Z"/></g>
<g><path style="opacity:1" fill="#4d4e4d" d="M 180.5,272.5 C 178.554,271.746 177.721,270.412 178,268.5C 179.481,269.471 180.315,270.804 180.5,272.5 Z"/></g>
<g><path style="opacity:1" fill="#1a1c1b" d="M 290.5,250.5 C 290.737,251.791 290.404,252.791 289.5,253.5C 256.829,263.001 224.162,272.501 191.5,282C 190.953,287.903 191.786,293.736 194,299.5C 194.667,302.167 194.667,304.833 194,307.5C 191.974,299.869 190.141,292.203 188.5,284.5C 186.667,284.167 184.833,283.833 183,283.5C 166.149,285.122 149.316,286.789 132.5,288.5C 132.5,287.5 132.5,286.5 132.5,285.5C 148.825,284.168 165.158,282.834 181.5,281.5C 218.018,272.058 254.351,261.724 290.5,250.5 Z"/></g>
<g><path style="opacity:1" fill="#545454" d="M 194.5,308.5 C 196.203,310.851 196.703,313.518 196,316.5C 194.921,313.937 194.421,311.271 194.5,308.5 Z"/></g>
<g><path style="opacity:1" fill="#020302" d="M 128.5,1055.5 C 128.667,1090.17 128.5,1124.83 128,1159.5C 127.722,1160.42 127.222,1161.08 126.5,1161.5C 116.783,1168.38 107.783,1176.22 99.5,1185C 98.5,1185.5 97.5,1186 96.5,1186.5C 95.0603,1185.05 93.3936,1184.05 91.5,1183.5C 92.6253,1185.13 93.9586,1186.63 95.5,1188C 95.0426,1188.41 94.7093,1188.91 94.5,1189.5C 86.3158,1196.85 77.8158,1203.85 69,1210.5C 58.8943,1186.94 48.7277,1163.27 38.5,1139.5C 44.6371,1143.4 50.6371,1148.23 56.5,1154C 57.1667,1154.67 57.8333,1154.67 58.5,1154C 51.6286,1147.62 44.6286,1141.46 37.5,1135.5C 36.9569,1135.44 36.6236,1135.11 36.5,1134.5C 43.354,1128.25 50.354,1122.25 57.5,1116.5C 58.3857,1115.68 58.719,1114.68 58.5,1113.5C 59.552,1113.65 60.552,1113.48 61.5,1113C 67.6856,1107.31 74.0189,1101.81 80.5,1096.5C 81.3857,1095.68 81.719,1094.68 81.5,1093.5C 82.552,1093.65 83.552,1093.48 84.5,1093C 97.6476,1081.58 110.648,1069.91 123.5,1058C 125.078,1056.91 126.745,1056.07 128.5,1055.5 Z"/></g>
<g><path style="opacity:1" fill="#cfcfcf" d="M 936.5,1076.5 C 951.321,1084.07 965.655,1092.41 979.5,1101.5C 978.127,1101.66 976.793,1101.49 975.5,1101C 963.235,1093.06 950.735,1085.56 938,1078.5C 931.391,1094.04 924.558,1109.37 917.5,1124.5C 922.178,1109.97 927.845,1095.8 934.5,1082C 934.167,1081.83 933.833,1081.67 933.5,1081.5C 918.482,1095.02 903.315,1108.35 888,1121.5C 883.801,1128.56 880.134,1135.9 877,1143.5C 871.568,1158.02 865.901,1172.35 860,1186.5C 859.303,1188.58 858.136,1190.25 856.5,1191.5C 865.36,1168.76 874.526,1146.1 884,1123.5C 898.888,1109.54 914.055,1096.04 929.5,1083C 931.607,1081.74 932.607,1079.9 932.5,1077.5C 933.708,1076.77 935.041,1076.43 936.5,1076.5 Z"/></g>
<g><path style="opacity:1" fill="#070707" d="M 917.5,1124.5 C 916.542,1124.95 915.708,1125.62 915,1126.5C 914.138,1129.95 912.972,1133.28 911.5,1136.5C 910.675,1137.39 909.675,1137.72 908.5,1137.5C 908.977,1143.24 907.311,1148.41 903.5,1153C 903.833,1153.33 904.167,1153.67 904.5,1154C 901.779,1159.35 899.279,1164.85 897,1170.5C 881.087,1184.07 865.42,1198.07 850,1212.5C 852.116,1205.57 854.282,1198.57 856.5,1191.5C 858.136,1190.25 859.303,1188.58 860,1186.5C 865.901,1172.35 871.568,1158.02 877,1143.5C 880.134,1135.9 883.801,1128.56 888,1121.5C 903.315,1108.35 918.482,1095.02 933.5,1081.5C 933.833,1081.67 934.167,1081.83 934.5,1082C 927.845,1095.8 922.178,1109.97 917.5,1124.5 Z"/></g>
<g><path style="opacity:1" fill="#8c8c8c" d="M 891.5,1127.5 C 890.244,1127.54 889.244,1127.04 888.5,1126C 889.998,1125.42 890.998,1125.92 891.5,1127.5 Z"/></g>
<g><path style="opacity:1" fill="#535353" d="M 891.5,1127.5 C 895.191,1128.76 898.691,1130.43 902,1132.5C 903.548,1131.32 905.048,1131.48 906.5,1133C 906.043,1133.41 905.709,1133.91 905.5,1134.5C 906.77,1135.29 907.77,1136.29 908.5,1137.5C 902.332,1134.92 896.665,1131.59 891.5,1127.5 Z"/></g>
<g><path style="opacity:1" fill="#a3a5a2" d="M 37.5,1135.5 C 44.6286,1141.46 51.6286,1147.62 58.5,1154C 57.8333,1154.67 57.1667,1154.67 56.5,1154C 50.6371,1148.23 44.6371,1143.4 38.5,1139.5C 37.5655,1138.43 37.2322,1137.1 37.5,1135.5 Z"/></g>
<g><path style="opacity:1" fill="#040404" d="M 979.5,1101.5 C 981.163,1103.53 983.163,1105.37 985.5,1107C 1001.54,1116.34 1017.54,1125.67 1033.5,1135C 1021.6,1165.08 1008.93,1195.58 995.5,1226.5C 987.705,1221.35 979.705,1216.68 971.5,1212.5C 972.869,1208.91 973.702,1205.24 974,1201.5C 972.576,1204.65 971.076,1207.65 969.5,1210.5C 946.203,1196.89 922.87,1183.23 899.5,1169.5C 903.311,1160.06 907.311,1150.73 911.5,1141.5C 912.7,1140.71 914.033,1140.71 915.5,1141.5C 914.544,1140.34 913.544,1139.17 912.5,1138C 914.669,1133.66 916.336,1129.16 917.5,1124.5C 924.558,1109.37 931.391,1094.04 938,1078.5C 950.735,1085.56 963.235,1093.06 975.5,1101C 976.793,1101.49 978.127,1101.66 979.5,1101.5 Z"/></g>
<g><path style="opacity:1" fill="#a4a6a3" d="M 64.5,1159.5 C 62.8042,1159.31 61.4709,1158.48 60.5,1157C 62.4122,1156.72 63.7456,1157.55 64.5,1159.5 Z"/></g>
<g><path style="opacity:1" fill="#a6a8a5" d="M 64.5,1159.5 C 66.1667,1160.5 67.5,1161.83 68.5,1163.5C 66.1667,1163.17 64.8333,1161.83 64.5,1159.5 Z"/></g>
<g><path style="opacity:1" fill="#040604" d="M 128.5,1163.5 C 128.5,1180.17 128.5,1196.83 128.5,1213.5C 125.003,1210.92 121.336,1208.58 117.5,1206.5C 112.469,1200.14 106.469,1194.81 99.5,1190.5C 98.3157,1189.31 98.3157,1188.15 99.5,1187C 108.053,1179.87 116.386,1172.53 124.5,1165C 125.745,1164.21 127.078,1163.71 128.5,1163.5 Z"/></g>
<g><path style="opacity:1" fill="#cccccc" d="M 979.5,1101.5 C 996.867,1110.98 1014.2,1120.81 1031.5,1131C 1033.12,1132.3 1034.46,1133.8 1035.5,1135.5C 1023,1167.18 1009.83,1198.51 996,1229.5C 978.659,1244.68 961.492,1260.01 944.5,1275.5C 941.846,1274.16 939.513,1272.5 937.5,1270.5C 937.833,1270.5 938.167,1270.5 938.5,1270.5C 940.426,1271.24 942.259,1272.24 944,1273.5C 944.67,1270.83 945.837,1268.49 947.5,1266.5C 947.67,1267.82 947.337,1268.99 946.5,1270C 947.167,1270.67 947.833,1270.67 948.5,1270C 963.482,1255.69 978.815,1241.69 994.5,1228C 986.819,1223.16 979.153,1218.33 971.5,1213.5C 970.391,1213.44 969.391,1213.11 968.5,1212.5C 945.194,1198.84 921.861,1185.18 898.5,1171.5C 881.787,1185.92 865.287,1200.59 849,1215.5C 848.833,1215.83 848.667,1216.17 848.5,1216.5C 877.899,1234.17 907.233,1251.84 936.5,1269.5C 935.778,1269.92 935.278,1270.58 935,1271.5C 934.292,1270.62 933.458,1269.95 932.5,1269.5C 904.108,1251.65 875.275,1234.31 846,1217.5C 848.649,1208.53 852.149,1199.86 856.5,1191.5C 854.282,1198.57 852.116,1205.57 850,1212.5C 865.42,1198.07 881.087,1184.07 897,1170.5C 899.279,1164.85 901.779,1159.35 904.5,1154C 904.167,1153.67 903.833,1153.33 903.5,1153C 907.311,1148.41 908.977,1143.24 908.5,1137.5C 909.675,1137.72 910.675,1137.39 911.5,1136.5C 912.972,1133.28 914.138,1129.95 915,1126.5C 915.708,1125.62 916.542,1124.95 917.5,1124.5C 916.336,1129.16 914.669,1133.66 912.5,1138C 913.544,1139.17 914.544,1140.34 915.5,1141.5C 914.033,1140.71 912.7,1140.71 911.5,1141.5C 907.311,1150.73 903.311,1160.06 899.5,1169.5C 922.87,1183.23 946.203,1196.89 969.5,1210.5C 969.833,1211.5 970.5,1212.17 971.5,1212.5C 979.705,1216.68 987.705,1221.35 995.5,1226.5C 1008.93,1195.58 1021.6,1165.08 1033.5,1135C 1017.54,1125.67 1001.54,1116.34 985.5,1107C 983.163,1105.37 981.163,1103.53 979.5,1101.5 Z"/></g>
<g><path style="opacity:1" fill="#929292" d="M 966.5,1171.5 C 969.849,1172.17 972.516,1173.84 974.5,1176.5C 971.489,1175.33 968.822,1173.66 966.5,1171.5 Z"/></g>
<g><path style="opacity:1" fill="#020202" d="M 968.5,1212.5 C 967.699,1216.23 966.699,1219.9 965.5,1223.5C 963.408,1226.09 962.075,1229.09 961.5,1232.5C 959.597,1235.53 958.263,1238.86 957.5,1242.5C 956.662,1242.84 956.328,1243.51 956.5,1244.5C 954.321,1248.2 952.655,1252.2 951.5,1256.5C 949.597,1259.53 948.263,1262.86 947.5,1266.5C 945.837,1268.49 944.67,1270.83 944,1273.5C 942.259,1272.24 940.426,1271.24 938.5,1270.5C 938.158,1269.66 937.492,1269.33 936.5,1269.5C 907.233,1251.84 877.899,1234.17 848.5,1216.5C 848.667,1216.17 848.833,1215.83 849,1215.5C 865.287,1200.59 881.787,1185.92 898.5,1171.5C 921.861,1185.18 945.194,1198.84 968.5,1212.5 Z"/></g>
<g><path style="opacity:1" fill="#555555" d="M 959.5,1167.5 C 962.331,1168.08 964.664,1169.41 966.5,1171.5C 964.742,1171.12 963.075,1170.46 961.5,1169.5C 959.786,1170.61 959.119,1169.94 959.5,1167.5 Z"/></g>
<g><path style="opacity:1" fill="#a8a8a8" d="M 996.5,1167.5 C 998.657,1168.05 998.49,1169.05 996,1170.5C 995.53,1169.42 995.697,1168.42 996.5,1167.5 Z"/></g>
<g><path style="opacity:1" fill="#7f7f7f" d="M 949.5,1161.5 C 953.173,1163 956.506,1165 959.5,1167.5C 955.495,1166.5 952.161,1164.5 949.5,1161.5 Z"/></g>
<g><path style="opacity:1" fill="#838383" d="M 1006.5,1158.5 C 1007.24,1158.37 1007.91,1158.54 1008.5,1159C 1006.27,1161.93 1003.61,1163.93 1000.5,1165C 1002.71,1162.96 1004.71,1160.8 1006.5,1158.5 Z"/></g>
<g><path style="opacity:1" fill="#646464" d="M 942.5,1157.5 C 945.331,1158.08 947.664,1159.41 949.5,1161.5C 947.83,1161.25 946.33,1160.58 945,1159.5C 943.692,1160.15 942.859,1159.48 942.5,1157.5 Z"/></g>
<g><path style="opacity:1" fill="#898989" d="M 942.5,1157.5 C 940.577,1157.21 938.91,1156.37 937.5,1155C 939.668,1154.75 941.335,1155.58 942.5,1157.5 Z"/></g>
<g><path style="opacity:1" fill="#7b7b7b" d="M 1018.5,1149.5 C 1016.42,1152.08 1014.09,1154.58 1011.5,1157C 1010.83,1157.67 1010.17,1157.67 1009.5,1157C 1012.08,1153.91 1015.08,1151.41 1018.5,1149.5 Z"/></g>
<g><path style="opacity:1" fill="#858585" d="M 1018.5,1149.5 C 1020.86,1145.95 1023.86,1143.45 1027.5,1142C 1024.9,1145.11 1021.9,1147.61 1018.5,1149.5 Z"/></g>
<g><path style="opacity:1" fill="#7b7b7b" d="M 920.5,1144.5 C 924.261,1145.55 927.594,1147.38 930.5,1150C 927.649,1149.83 925.149,1148.66 923,1146.5C 921.692,1147.15 920.859,1146.48 920.5,1144.5 Z"/></g>
<g><path style="opacity:1" fill="#909090" d="M 915.5,1141.5 C 917.674,1141.75 919.341,1142.75 920.5,1144.5C 918.326,1144.25 916.659,1143.25 915.5,1141.5 Z"/></g>
<g><path style="opacity:1" fill="#979797" d="M 974.5,1176.5 C 976.38,1176.23 977.713,1176.9 978.5,1178.5C 976.847,1178.34 975.514,1177.67 974.5,1176.5 Z"/></g>
<g><path style="opacity:1" fill="#878787" d="M 983.5,1180.5 C 985.17,1178 987.336,1176 990,1174.5C 988.762,1177.23 986.595,1179.23 983.5,1180.5 Z"/></g>
<g><path style="opacity:1" fill="#8e8e8e" d="M 978.5,1178.5 C 980.027,1178.43 981.027,1179.09 981.5,1180.5C 979.973,1180.57 978.973,1179.91 978.5,1178.5 Z"/></g>
<g><path style="opacity:1" fill="#838383" d="M 981.5,1180.5 C 982.167,1180.5 982.833,1180.5 983.5,1180.5C 982.917,1183.95 981.584,1186.95 979.5,1189.5C 980.461,1186.57 981.127,1183.57 981.5,1180.5 Z"/></g>
<g><path style="opacity:1" fill="#979996" d="M 99.5,1190.5 C 106.469,1194.81 112.469,1200.14 117.5,1206.5C 111.177,1201.51 105.177,1196.18 99.5,1190.5 Z"/></g>
<g><path style="opacity:1" fill="#8c8c8c" d="M 979.5,1189.5 C 978.889,1192.72 977.722,1195.72 976,1198.5C 976.081,1195.09 977.248,1192.09 979.5,1189.5 Z"/></g>
<g><path style="opacity:1" fill="#040504" d="M 99.5,1190.5 C 105.177,1196.18 111.177,1201.51 117.5,1206.5C 120.792,1209.49 124.126,1212.49 127.5,1215.5C 128.65,1231.43 128.817,1247.43 128,1263.5C 126.961,1262.29 125.794,1261.29 124.5,1260.5C 106.629,1244.64 88.6287,1228.64 70.5,1212.5C 79.1667,1204.83 87.8333,1197.17 96.5,1189.5C 97.4168,1190.13 98.4168,1190.46 99.5,1190.5 Z"/></g>
<g><path style="opacity:1" fill="#d6d8d5" d="M 127.5,1052.5 C 128.11,1053.39 128.443,1054.39 128.5,1055.5C 126.745,1056.07 125.078,1056.91 123.5,1058C 110.648,1069.91 97.6476,1081.58 84.5,1093C 83.552,1093.48 82.552,1093.65 81.5,1093.5C 81.719,1094.68 81.3857,1095.68 80.5,1096.5C 74.0189,1101.81 67.6856,1107.31 61.5,1113C 60.552,1113.48 59.552,1113.65 58.5,1113.5C 58.719,1114.68 58.3857,1115.68 57.5,1116.5C 50.354,1122.25 43.354,1128.25 36.5,1134.5C 36.6236,1135.11 36.9569,1135.44 37.5,1135.5C 37.2322,1137.1 37.5655,1138.43 38.5,1139.5C 48.7277,1163.27 58.8943,1186.94 69,1210.5C 77.8158,1203.85 86.3158,1196.85 94.5,1189.5C 94.7093,1188.91 95.0426,1188.41 95.5,1188C 93.9586,1186.63 92.6253,1185.13 91.5,1183.5C 93.3936,1184.05 95.0603,1185.05 96.5,1186.5C 97.5,1186 98.5,1185.5 99.5,1185C 107.783,1176.22 116.783,1168.38 126.5,1161.5C 127.167,1162.17 127.833,1162.83 128.5,1163.5C 127.078,1163.71 125.745,1164.21 124.5,1165C 116.386,1172.53 108.053,1179.87 99.5,1187C 98.3157,1188.15 98.3157,1189.31 99.5,1190.5C 98.4168,1190.46 97.4168,1190.13 96.5,1189.5C 87.8333,1197.17 79.1667,1204.83 70.5,1212.5C 88.6287,1228.64 106.629,1244.64 124.5,1260.5C 123.833,1260.5 123.5,1260.83 123.5,1261.5C 104.473,1245.19 85.6394,1228.52 67,1211.5C 55.7156,1185.13 44.5489,1158.79 33.5,1132.5C 34.552,1132.65 35.552,1132.48 36.5,1132C 50.7107,1119.28 65.0441,1106.78 79.5,1094.5C 80.3857,1093.68 80.719,1092.68 80.5,1091.5C 82.4835,1091.62 84.1502,1090.95 85.5,1089.5C 99.5607,1077.1 113.561,1064.76 127.5,1052.5 Z"/></g>
<g><path style="opacity:1" fill="#9a9c99" d="M 82.5,1175.5 C 86.1203,1177.45 89.1203,1180.12 91.5,1183.5C 87.8537,1181.52 84.8537,1178.85 82.5,1175.5 Z"/></g>
<g><path style="opacity:1" fill="#9d9f9c" d="M 76.5,1170.5 C 79.0892,1171.42 81.0892,1173.09 82.5,1175.5C 79.9108,1174.58 77.9108,1172.91 76.5,1170.5 Z"/></g>
<g><path style="opacity:1" fill="#969895" d="M 73.5,1167.5 C 75.1898,1167.86 76.1898,1168.86 76.5,1170.5C 74.8102,1170.14 73.8102,1169.14 73.5,1167.5 Z"/></g>
<g><path style="opacity:1" fill="#9ea09d" d="M 68.5,1163.5 C 70.7488,1164.08 72.4154,1165.41 73.5,1167.5C 71.2512,1166.92 69.5846,1165.59 68.5,1163.5 Z"/></g>
<g><path style="opacity:1" fill="#959794" d="M 117.5,1206.5 C 121.336,1208.58 125.003,1210.92 128.5,1213.5C 128.167,1214.17 127.833,1214.83 127.5,1215.5C 124.126,1212.49 120.792,1209.49 117.5,1206.5 Z"/></g>
<g><path style="opacity:1" fill="#7e7e7e" d="M 971.5,1212.5 C 970.5,1212.17 969.833,1211.5 969.5,1210.5C 971.076,1207.65 972.576,1204.65 974,1201.5C 973.702,1205.24 972.869,1208.91 971.5,1212.5 Z"/></g>
<g><path style="opacity:1" fill="#080808" d="M 971.5,1213.5 C 979.153,1218.33 986.819,1223.16 994.5,1228C 978.815,1241.69 963.482,1255.69 948.5,1270C 947.833,1270.67 947.167,1270.67 946.5,1270C 947.337,1268.99 947.67,1267.82 947.5,1266.5C 949.794,1263.63 951.128,1260.3 951.5,1256.5C 954.219,1253.05 955.885,1249.05 956.5,1244.5C 956.328,1243.51 956.662,1242.84 957.5,1242.5C 959.794,1239.63 961.128,1236.3 961.5,1232.5C 963.2,1231.98 964.533,1230.98 965.5,1229.5C 965.08,1227.67 965.08,1225.67 965.5,1223.5C 967.317,1220.04 969.317,1216.7 971.5,1213.5 Z"/></g>
<g><path style="opacity:1" fill="#8a8a8a" d="M 968.5,1212.5 C 969.391,1213.11 970.391,1213.44 971.5,1213.5C 969.317,1216.7 967.317,1220.04 965.5,1223.5C 966.699,1219.9 967.699,1216.23 968.5,1212.5 Z"/></g>
<g><path style="opacity:1" fill="#4a4a4a" d="M 965.5,1223.5 C 965.08,1225.67 965.08,1227.67 965.5,1229.5C 964.533,1230.98 963.2,1231.98 961.5,1232.5C 962.075,1229.09 963.408,1226.09 965.5,1223.5 Z"/></g>
<g><path style="opacity:1" fill="#909090" d="M 961.5,1232.5 C 961.128,1236.3 959.794,1239.63 957.5,1242.5C 958.263,1238.86 959.597,1235.53 961.5,1232.5 Z"/></g>
<g><path style="opacity:1" fill="#818181" d="M 956.5,1244.5 C 955.885,1249.05 954.219,1253.05 951.5,1256.5C 952.655,1252.2 954.321,1248.2 956.5,1244.5 Z"/></g>
<g><path style="opacity:1" fill="#8b8b8b" d="M 951.5,1256.5 C 951.128,1260.3 949.794,1263.63 947.5,1266.5C 948.263,1262.86 949.597,1259.53 951.5,1256.5 Z"/></g>
<g><path style="opacity:1" fill="#fcfdfc" d="M 932.5,1269.5 C 933.458,1269.95 934.292,1270.62 935,1271.5C 935.278,1270.58 935.778,1269.92 936.5,1269.5C 937.492,1269.33 938.158,1269.66 938.5,1270.5C 938.167,1270.5 937.833,1270.5 937.5,1270.5C 936.501,1337 936.168,1403.66 936.5,1470.5C 916.833,1470.5 897.167,1470.5 877.5,1470.5C 877.5,1469.5 877.5,1468.5 877.5,1467.5C 896.008,1467.83 914.341,1467.5 932.5,1466.5C 932.5,1400.83 932.5,1335.17 932.5,1269.5 Z"/></g>
<g><path style="opacity:1" fill="#fafafa" d="M 132.5,310.5 C 132.333,386.167 132.5,461.834 133,537.5C 148.59,549.045 164.09,560.712 179.5,572.5C 167.714,578.222 155.714,583.722 143.5,589C 139.979,590.674 136.313,591.84 132.5,592.5C 132.167,836.168 132.5,1079.83 133.5,1323.5C 148.623,1331.4 163.956,1338.73 179.5,1345.5C 181.087,1365.48 181.92,1385.48 182,1405.5C 169.167,1414.33 156.333,1423.17 143.5,1432C 140.048,1434.39 136.381,1436.23 132.5,1437.5C 132.5,1447.17 132.5,1456.83 132.5,1466.5C 232.501,1466.67 332.501,1466.5 432.5,1466C 450.753,1453.96 468.919,1441.79 487,1429.5C 488.657,1441.83 489.823,1454.17 490.5,1466.5C 545.664,1467.5 600.997,1467.83 656.5,1467.5C 656.443,1468.61 656.11,1469.61 655.5,1470.5C 640.833,1470.5 626.167,1470.5 611.5,1470.5C 611.167,1470.5 610.833,1470.5 610.5,1470.5C 591.659,1470.17 572.993,1470.5 554.5,1471.5C 553.833,1471.17 553.167,1470.83 552.5,1470.5C 531.833,1470.5 511.167,1470.5 490.5,1470.5C 491.198,1485.52 492.198,1500.52 493.5,1515.5C 493.167,1516.83 492.833,1518.17 492.5,1519.5C 466.562,1506.53 440.562,1493.53 414.5,1480.5C 413.289,1479.73 413.289,1478.89 414.5,1478C 417.528,1476.16 420.528,1474.32 423.5,1472.5C 424.289,1472.22 424.956,1471.72 425.5,1471C 395.502,1470.5 365.502,1470.33 335.5,1470.5C 330.167,1470.5 324.833,1470.5 319.5,1470.5C 316.615,1470.19 313.948,1470.53 311.5,1471.5C 276.316,1486.43 241.649,1502.43 207.5,1519.5C 201.77,1521.07 196.437,1523.4 191.5,1526.5C 181.749,1530.08 172.416,1534.41 163.5,1539.5C 162.903,1539.26 162.57,1538.76 162.5,1538C 162.978,1536.7 163.645,1535.53 164.5,1534.5C 174.577,1524.09 183.911,1513.09 192.5,1501.5C 194.587,1500.42 195.92,1498.75 196.5,1496.5C 203.961,1488.92 210.961,1480.92 217.5,1472.5C 218.043,1472.44 218.376,1472.11 218.5,1471.5C 211.866,1470.5 205.2,1470.17 198.5,1470.5C 175.167,1470.5 151.833,1470.5 128.5,1470.5C 128.667,1458.83 128.5,1447.16 128,1435.5C 112.423,1427.96 96.9228,1420.29 81.5,1412.5C 79.3358,1392.54 77.8358,1372.54 77,1352.5C 93.3333,1341.5 109.667,1330.5 126,1319.5C 126.414,1319.96 126.914,1320.29 127.5,1320.5C 128.666,1302.18 128.833,1283.84 128,1265.5C 126.629,1263.96 125.129,1262.63 123.5,1261.5C 123.5,1260.83 123.833,1260.5 124.5,1260.5C 125.794,1261.29 126.961,1262.29 128,1263.5C 128.817,1247.43 128.65,1231.43 127.5,1215.5C 127.833,1214.83 128.167,1214.17 128.5,1213.5C 128.5,1196.83 128.5,1180.17 128.5,1163.5C 127.833,1162.83 127.167,1162.17 126.5,1161.5C 127.222,1161.08 127.722,1160.42 128,1159.5C 128.5,1124.83 128.667,1090.17 128.5,1055.5C 128.443,1054.39 128.11,1053.39 127.5,1052.5C 128.832,900.235 128.832,747.902 127.5,595.5C 117.608,599.74 107.775,604.074 98,608.5C 100.429,578.734 103.929,549.068 108.5,519.5C 115.143,524.309 121.643,529.309 128,534.5C 128.5,460.167 128.667,385.834 128.5,311.5C 129.317,313.969 129.817,316.635 130,319.5C 130.333,316.833 130.667,314.167 131,311.5C 131.383,310.944 131.883,310.611 132.5,310.5 Z"/></g>
<g><path style="opacity:1" fill="#f9faf9" d="M 869.5,1402.5 C 865.148,1404.67 861.148,1407.34 857.5,1410.5C 855.147,1411.34 853.147,1412.67 851.5,1414.5C 843.82,1418.67 836.487,1423.34 829.5,1428.5C 824.12,1430.85 819.454,1434.19 815.5,1438.5C 810.657,1440.42 806.323,1443.08 802.5,1446.5C 800.436,1446.31 798.436,1445.81 796.5,1445C 767.105,1430.63 737.771,1416.3 708.5,1402C 706.937,1401.24 705.937,1400.07 705.5,1398.5C 729.192,1382.98 753.025,1367.65 777,1352.5C 808.902,1367.53 840.402,1383.2 871.5,1399.5C 870.807,1400.52 870.141,1401.52 869.5,1402.5 Z"/></g>
<g><path style="opacity:1" fill="#363e3c" d="M 857.5,1410.5 C 856.198,1412.82 854.198,1414.16 851.5,1414.5C 853.147,1412.67 855.147,1411.34 857.5,1410.5 Z"/></g>
<g><path style="opacity:1" fill="#2d3934" d="M 829.5,1428.5 C 825.194,1432.32 820.527,1435.65 815.5,1438.5C 819.454,1434.19 824.12,1430.85 829.5,1428.5 Z"/></g>
<g><path style="opacity:1" fill="#141717" d="M 705.5,1398.5 C 705.937,1400.07 706.937,1401.24 708.5,1402C 737.771,1416.3 767.105,1430.63 796.5,1445C 798.436,1445.81 800.436,1446.31 802.5,1446.5C 801.62,1451.09 801.62,1455.75 802.5,1460.5C 802.461,1462.95 801.794,1464.95 800.5,1466.5C 799.703,1460.52 799.037,1454.52 798.5,1448.5C 770.441,1434.97 742.441,1421.14 714.5,1407C 710.379,1405.77 706.379,1404.27 702.5,1402.5C 703.512,1401.13 704.512,1399.8 705.5,1398.5 Z"/></g>
<g><path style="opacity:1" fill="#849a96" d="M 932.5,1466.5 C 914.341,1467.5 896.008,1467.83 877.5,1467.5C 877.5,1468.5 877.5,1469.5 877.5,1470.5C 897.167,1470.5 916.833,1470.5 936.5,1470.5C 917.007,1471.5 897.34,1471.83 877.5,1471.5C 878.555,1483.49 879.055,1495.49 879,1507.5C 855.635,1523.03 832.135,1538.36 808.5,1553.5C 807.159,1549.62 806.325,1545.62 806,1541.5C 804.634,1518.18 803.801,1494.85 803.5,1471.5C 802.5,1471.5 801.5,1471.5 800.5,1471.5C 800.5,1473.17 800.5,1474.83 800.5,1476.5C 799.539,1474.74 799.205,1472.74 799.5,1470.5C 800.5,1470.5 801.5,1470.5 802.5,1470.5C 802.473,1468.8 801.806,1467.47 800.5,1466.5C 801.794,1464.95 802.461,1462.95 802.5,1460.5C 801.62,1455.75 801.62,1451.09 802.5,1446.5C 806.323,1443.08 810.657,1440.42 815.5,1438.5C 820.527,1435.65 825.194,1432.32 829.5,1428.5C 836.487,1423.34 843.82,1418.67 851.5,1414.5C 854.198,1414.16 856.198,1412.82 857.5,1410.5C 861.148,1407.34 865.148,1404.67 869.5,1402.5C 870.583,1402.46 871.583,1402.13 872.5,1401.5C 873.298,1403.08 873.798,1404.74 874,1406.5C 875.546,1426.47 876.379,1446.47 876.5,1466.5C 895.167,1466.5 913.833,1466.5 932.5,1466.5 Z"/></g>
<g><path style="opacity:1" fill="#7e7e7e" d="M 658.5,1465.5 C 658.5,1466.83 657.833,1467.5 656.5,1467.5C 600.997,1467.83 545.664,1467.5 490.5,1466.5C 546.572,1466.83 602.572,1466.5 658.5,1465.5 Z"/></g>
<g><path style="opacity:1" fill="#5f5f5f" d="M 128.5,1470.5 C 151.833,1470.5 175.167,1470.5 198.5,1470.5C 198.737,1471.79 198.404,1472.79 197.5,1473.5C 174.685,1471.84 151.685,1470.84 128.5,1470.5 Z"/></g>
<g><path style="opacity:1" fill="#696b6a" d="M 311.5,1471.5 C 313.948,1470.53 316.615,1470.19 319.5,1470.5C 318.71,1471.4 317.71,1472.07 316.5,1472.5C 315.081,1471.55 313.415,1471.22 311.5,1471.5 Z"/></g>
<g><path style="opacity:1" fill="#606060" d="M 335.5,1471.5 C 335.5,1471.17 335.5,1470.83 335.5,1470.5C 365.502,1470.33 395.502,1470.5 425.5,1471C 424.956,1471.72 424.289,1472.22 423.5,1472.5C 394.338,1471.5 365.005,1471.17 335.5,1471.5 Z"/></g>
<g><path style="opacity:1" fill="#616161" d="M 554.5,1471.5 C 572.993,1470.5 591.659,1470.17 610.5,1470.5C 610.5,1470.83 610.5,1471.17 610.5,1471.5C 606.486,1471.33 602.486,1471.5 598.5,1472C 596.65,1474.03 595.984,1474.03 596.5,1472C 588.833,1471.33 581.167,1471.33 573.5,1472C 572.837,1473.52 571.837,1474.69 570.5,1475.5C 570.539,1474.42 570.873,1473.42 571.5,1472.5C 565.872,1471.5 560.206,1471.17 554.5,1471.5 Z"/></g>
<g><path style="opacity:1" fill="#626262" d="M 611.5,1471.5 C 611.5,1471.17 611.5,1470.83 611.5,1470.5C 626.167,1470.5 640.833,1470.5 655.5,1470.5C 655.5,1471.17 655.167,1471.5 654.5,1471.5C 640.315,1471.71 625.982,1471.71 611.5,1471.5 Z"/></g>
<g><path style="opacity:1" fill="#050705" d="M 554.5,1471.5 C 560.206,1471.17 565.872,1471.5 571.5,1472.5C 570.873,1473.42 570.539,1474.42 570.5,1475.5C 571.837,1474.69 572.837,1473.52 573.5,1472C 581.167,1471.33 588.833,1471.33 596.5,1472C 595.984,1474.03 596.65,1474.03 598.5,1472C 602.486,1471.5 606.486,1471.33 610.5,1471.5C 612.13,1476.08 614.13,1480.41 616.5,1484.5C 618.373,1491.24 621.039,1497.57 624.5,1503.5C 624.707,1506.24 625.707,1508.57 627.5,1510.5C 627.402,1512.55 628.069,1514.22 629.5,1515.5C 630.534,1519.24 631.868,1522.91 633.5,1526.5C 633.167,1526.83 632.833,1527.17 632.5,1527.5C 605.601,1521.03 578.601,1515.03 551.5,1509.5C 551.789,1507.78 551.456,1505.95 550.5,1504C 551.933,1493.17 553.266,1482.34 554.5,1471.5 Z"/></g>
<g><path style="opacity:1" fill="#060706" d="M 611.5,1471.5 C 625.982,1471.71 640.315,1471.71 654.5,1471.5C 653.953,1474.21 652.287,1475.71 649.5,1476C 651.916,1482.33 655.249,1488.16 659.5,1493.5C 654.449,1500.87 649.449,1508.2 644.5,1515.5C 649.81,1509.19 655.144,1502.85 660.5,1496.5C 666.773,1505.95 673.273,1515.28 680,1524.5C 681.298,1525.95 681.465,1527.28 680.5,1528.5C 665.131,1528.79 649.798,1528.45 634.5,1527.5C 633.903,1522.98 632.237,1518.98 629.5,1515.5C 629.598,1513.45 628.931,1511.78 627.5,1510.5C 627.293,1507.76 626.293,1505.43 624.5,1503.5C 622.627,1496.76 619.961,1490.43 616.5,1484.5C 615.424,1479.94 613.757,1475.61 611.5,1471.5 Z"/></g>
<g><path style="opacity:1" fill="#b2b4b1" d="M 610.5,1470.5 C 610.833,1470.5 611.167,1470.5 611.5,1470.5C 611.5,1470.83 611.5,1471.17 611.5,1471.5C 613.757,1475.61 615.424,1479.94 616.5,1484.5C 614.13,1480.41 612.13,1476.08 610.5,1471.5C 610.5,1471.17 610.5,1470.83 610.5,1470.5 Z"/></g>
<g><path style="opacity:1" fill="#585a57" d="M 570.5,1475.5 C 570.229,1477.31 569.562,1478.98 568.5,1480.5C 567.693,1478.42 568.359,1476.76 570.5,1475.5 Z"/></g>
<g><path style="opacity:1" fill="#bfcfca" d="M 319.5,1470.5 C 324.833,1470.5 330.167,1470.5 335.5,1470.5C 335.5,1470.83 335.5,1471.17 335.5,1471.5C 337.594,1476.97 338.928,1482.63 339.5,1488.5C 339.508,1493.65 337.508,1497.82 333.5,1501C 276.645,1513.21 219.978,1526.05 163.5,1539.5C 172.416,1534.41 181.749,1530.08 191.5,1526.5C 197.23,1524.93 202.563,1522.6 207.5,1519.5C 227.805,1511.52 247.805,1502.68 267.5,1493C 283.855,1486.15 300.188,1479.32 316.5,1472.5C 317.71,1472.07 318.71,1471.4 319.5,1470.5 Z"/></g>
<g><path style="opacity:1" fill="#7b7d7a" d="M 563.5,1485.5 C 564.713,1486.5 564.546,1487.5 563,1488.5C 562.53,1487.42 562.697,1486.42 563.5,1485.5 Z"/></g>
<g><path style="opacity:1" fill="#bfcfcc" d="M 702.5,1402.5 C 706.379,1404.27 710.379,1405.77 714.5,1407C 742.441,1421.14 770.441,1434.97 798.5,1448.5C 799.037,1454.52 799.703,1460.52 800.5,1466.5C 801.806,1467.47 802.473,1468.8 802.5,1470.5C 801.5,1470.5 800.5,1470.5 799.5,1470.5C 799.205,1472.74 799.539,1474.74 800.5,1476.5C 801.662,1502.85 802.995,1529.18 804.5,1555.5C 774.185,1561.5 743.852,1567.5 713.5,1573.5C 705.342,1564.83 698.508,1555.16 693,1544.5C 692.617,1545.06 692.117,1545.39 691.5,1545.5C 691.5,1544.83 691.5,1544.17 691.5,1543.5C 689.597,1538.69 686.93,1534.36 683.5,1530.5C 682.5,1529.83 681.5,1529.17 680.5,1528.5C 681.465,1527.28 681.298,1525.95 680,1524.5C 673.273,1515.28 666.773,1505.95 660.5,1496.5C 655.144,1502.85 649.81,1509.19 644.5,1515.5C 649.449,1508.2 654.449,1500.87 659.5,1493.5C 655.249,1488.16 651.916,1482.33 649.5,1476C 652.287,1475.71 653.953,1474.21 654.5,1471.5C 655.167,1471.5 655.5,1471.17 655.5,1470.5C 656.11,1469.61 656.443,1468.61 656.5,1467.5C 657.833,1467.5 658.5,1466.83 658.5,1465.5C 672.92,1444.33 687.587,1423.33 702.5,1402.5 Z"/></g>
<g><path style="opacity:1" fill="#839892" d="M 198.5,1470.5 C 205.2,1470.17 211.866,1470.5 218.5,1471.5C 218.376,1472.11 218.043,1472.44 217.5,1472.5C 217.44,1471.96 217.107,1471.62 216.5,1471.5C 209.106,1479.31 202.44,1487.64 196.5,1496.5C 194.413,1497.58 193.08,1499.25 192.5,1501.5C 183.911,1513.09 174.577,1524.09 164.5,1534.5C 175.787,1514.26 186.787,1493.92 197.5,1473.5C 198.404,1472.79 198.737,1471.79 198.5,1470.5 Z"/></g>
<g><path style="opacity:1" fill="#1d2221" d="M 217.5,1472.5 C 210.961,1480.92 203.961,1488.92 196.5,1496.5C 202.44,1487.64 209.106,1479.31 216.5,1471.5C 217.107,1471.62 217.44,1471.96 217.5,1472.5 Z"/></g>
<g><path style="opacity:1" fill="#171b19" d="M 311.5,1471.5 C 313.415,1471.22 315.081,1471.55 316.5,1472.5C 300.188,1479.32 283.855,1486.15 267.5,1493C 247.805,1502.68 227.805,1511.52 207.5,1519.5C 241.649,1502.43 276.316,1486.43 311.5,1471.5 Z"/></g>
<g><path style="opacity:1" fill="#a8aaa7" d="M 616.5,1484.5 C 619.961,1490.43 622.627,1496.76 624.5,1503.5C 621.039,1497.57 618.373,1491.24 616.5,1484.5 Z"/></g>
<g><path style="opacity:1" fill="#242e2b" d="M 196.5,1496.5 C 195.92,1498.75 194.587,1500.42 192.5,1501.5C 193.08,1499.25 194.413,1497.58 196.5,1496.5 Z"/></g>
<g><path style="opacity:1" fill="#b0b2af" d="M 624.5,1503.5 C 626.293,1505.43 627.293,1507.76 627.5,1510.5C 625.707,1508.57 624.707,1506.24 624.5,1503.5 Z"/></g>
<g><path style="opacity:1" fill="#d9dbd8" d="M 552.5,1470.5 C 553.167,1470.83 553.833,1471.17 554.5,1471.5C 553.266,1482.34 551.933,1493.17 550.5,1504C 551.456,1505.95 551.789,1507.78 551.5,1509.5C 578.601,1515.03 605.601,1521.03 632.5,1527.5C 632.833,1527.17 633.167,1526.83 633.5,1526.5C 631.868,1522.91 630.534,1519.24 629.5,1515.5C 632.237,1518.98 633.903,1522.98 634.5,1527.5C 649.798,1528.45 665.131,1528.79 680.5,1528.5C 681.5,1529.17 682.5,1529.83 683.5,1530.5C 667.488,1530.61 651.488,1530.28 635.5,1529.5C 634.247,1541.86 632.747,1554.19 631,1566.5C 631.389,1553.82 632.223,1541.16 633.5,1528.5C 607.034,1523.76 580.7,1518.59 554.5,1513C 579.974,1531.64 605.308,1550.47 630.5,1569.5C 650.739,1560.55 671.072,1551.88 691.5,1543.5C 691.5,1544.17 691.5,1544.83 691.5,1545.5C 671.157,1554.17 650.823,1562.84 630.5,1571.5C 603.474,1551.31 576.307,1531.31 549,1511.5C 549.421,1497.79 550.588,1484.12 552.5,1470.5 Z"/></g>
<g><path style="opacity:1" fill="#a8aaa7" d="M 627.5,1510.5 C 628.931,1511.78 629.598,1513.45 629.5,1515.5C 628.069,1514.22 627.402,1512.55 627.5,1510.5 Z"/></g>
<g><path style="opacity:1" fill="#afb1ae" d="M 644.5,1515.5 C 644.315,1517.2 643.481,1518.53 642,1519.5C 641.721,1517.59 642.554,1516.25 644.5,1515.5 Z"/></g>
<g><path style="opacity:1" fill="#49524d" d="M 207.5,1519.5 C 202.563,1522.6 197.23,1524.93 191.5,1526.5C 196.437,1523.4 201.77,1521.07 207.5,1519.5 Z"/></g>
<g><path style="opacity:1" fill="#040503" d="M 683.5,1530.5 C 686.93,1534.36 689.597,1538.69 691.5,1543.5C 671.072,1551.88 650.739,1560.55 630.5,1569.5C 605.308,1550.47 579.974,1531.64 554.5,1513C 580.7,1518.59 607.034,1523.76 633.5,1528.5C 632.223,1541.16 631.389,1553.82 631,1566.5C 632.747,1554.19 634.247,1541.86 635.5,1529.5C 651.488,1530.28 667.488,1530.61 683.5,1530.5 Z"/></g>
<g><path style="opacity:1" fill="#545653" d="M 1065.5,-0.5 C 1065.83,-0.5 1066.17,-0.5 1066.5,-0.5C 1066.5,532.833 1066.5,1066.17 1066.5,1599.5C 710.833,1599.5 355.167,1599.5 -0.5,1599.5C -0.5,1599.17 -0.5,1598.83 -0.5,1598.5C 354.833,1598.5 710.167,1598.5 1065.5,1598.5C 1065.5,1065.5 1065.5,532.5 1065.5,-0.5 Z"/></g>
</svg>
